<svg version="1.1" xmlns="http://www.w3.org/2000/svg" xmlns:xlink="http://www.w3.org/1999/xlink" width="488.48471" height="357.71604" viewBox="0,0,488.48471,357.71604"><g transform="translate(4.24234,-1.142)"><g data-paper-data="{&quot;isPaintingLayer&quot;:true}" stroke-linecap="butt" stroke-linejoin="miter" stroke-miterlimit="10" stroke-dasharray="" stroke-dashoffset="0" style="mix-blend-mode: normal"><path d="" fill="#000000" fill-rule="nonzero" stroke="none" stroke-width="1"/><g><path d="M483.74238,309.747h-121.33212c-31.94137,30.13464 -74.99581,48.61104 -122.36879,48.61104c-47.37295,0 -90.42739,-18.4764 -122.3688,-48.61104h-121.415v-123.03827h65.56502c-0.08288,-2.22723 -0.14218,-4.46063 -0.14218,-6.70578c0,-98.50751 79.8534,-178.36095 178.36095,-178.36095c98.50756,0 178.35502,79.85344 178.35502,178.36095c0,2.24514 -0.05331,4.47853 -0.13625,6.70578h65.48214z" fill="#ffdd00" fill-rule="nonzero" stroke="#000000" stroke-width="1"/><path d="M240.04153,10.84647c45.18113,0 87.66094,17.59381 119.61414,49.54707c31.94727,31.94736 49.5411,74.42714 49.5411,119.60836c0,45.18103 -17.59381,87.66107 -49.5411,119.60816c-31.95321,31.95326 -74.43301,49.54707 -119.61414,49.54707c-45.18119,0 -87.661,-17.59381 -119.61422,-49.54707c-31.9472,-31.9471 -49.54101,-74.42712 -49.54101,-119.60816c0,-45.18119 17.59381,-87.661 49.54103,-119.60836c31.95321,-31.95326 74.43302,-49.54707 119.61422,-49.54707M240.04153,18.12684c-89.40257,0 -161.87488,72.47832 -161.87488,161.87502c0,89.39669 72.47232,161.86885 161.87489,161.86885c89.40257,0 161.87484,-72.47214 161.87484,-161.86884c0,-89.39669 -72.47227,-161.87502 -161.87484,-161.87502" fill="#000000" fill-rule="nonzero" stroke="none" stroke-width="1"/><path d="M401.93249,180.00061c0,89.4026 -72.47241,161.8749 -161.87495,161.8749c-89.39663,0 -161.86895,-72.4723 -161.86895,-161.8749c0,-89.4026 72.47233,-161.87488 161.86896,-161.87488c89.40257,0 161.87498,72.47227 161.87498,161.87488" fill="#e3000b" fill-rule="nonzero" stroke="none" stroke-width="1"/><path d="M285.23071,142.51218c-0.25473,-0.60429 -1.02483,-1.03081 -0.68118,-1.88971c2.91447,-1.8009 5.5743,-4.5436 7.36921,-7.54112c-0.08294,3.85642 -2.57095,6.85981 -5.31363,9.5137z" fill="#000000" fill-rule="nonzero" stroke="none" stroke-width="1"/><path d="M297.74852,154.93857c-0.77016,-0.25471 -1.54026,-1.11363 -1.62911,-1.97253c-0.08884,-1.02489 1.1137,-1.62907 1.80085,-2.13851c2.82574,-1.97264 4.71544,-4.88724 6.51628,-7.63002c-1.28552,4.11115 -2.83166,7.96756 -5.14789,11.56925l-1.54012,0.1718" fill="#000000" fill-rule="nonzero" stroke="none" stroke-width="1"/><path d="M289.00306,145.85432l-0.083,-1.62907c2.14441,-1.88972 3.93942,-4.37179 5.82913,-6.51621c-1.36846,3.00344 -2.82574,5.82908 -4.5436,8.57181z" fill="#000000" fill-rule="nonzero" stroke="none" stroke-width="1"/><path d="M282.14749,138.30919c-0.59839,-0.17174 -1.28552,-0.42645 -1.45726,-1.11356c0.51532,-1.9727 2.8316,-2.14443 4.28886,-3.25805l1.71197,-1.54027c-1.36839,2.05564 -2.57096,4.28289 -4.5436,5.91189" fill="#000000" fill-rule="nonzero" stroke="none" stroke-width="1"/><path d="M295.00579,150.65266c-1.28558,0.34358 -2.14458,-1.03073 -2.83171,-1.8838c0.60423,-0.77011 1.63499,-1.20252 2.31628,-2.06148c1.28541,-1.54019 2.91459,-3.08034 4.02815,-4.79832c-0.77005,2.99754 -0.59829,6.77102 -3.51272,8.74359" fill="#000000" fill-rule="nonzero" stroke="none" stroke-width="1"/><path d="M182.62944,185.54001l-0.7701,-1.28535c-0.68717,-1.62906 -1.71786,-3.25822 -3.17519,-4.37185l-0.42652,0.25472l-0.17172,7.89056l1.0307,0.68119c0.9419,-1.19663 2.13857,-2.39918 3.51283,-3.16925M174.48414,147.22462c0.51544,-2.22742 1.03073,-4.46059 1.2026,-6.77103c-0.51544,-0.7759 -0.9419,-1.80071 -1.80085,-2.23316c-0.59829,0.26071 -0.51542,1.11961 -0.42656,1.80078c0.34358,2.40508 -0.2606,4.71548 0.083,7.11464l0.34358,0.68711l0.59826,-0.59837M174.99958,184.85285l-0.34358,-7.45811c-1.88383,-1.19663 -3.08641,-3.34106 -5.05898,-4.37169c-1.11375,-0.77011 -1.71197,-2.05564 -2.82572,-2.65388c0,2.99735 0.25471,6.17257 0.68717,9.08717l1.80086,1.7948c2.05558,0.68736 3.6847,2.65979 5.65727,3.7736zM167.19789,194.36663c-0.42658,-2.05567 -0.6813,-4.28288 -1.36839,-6.4273l-3.00343,-2.05568l-2.31032,-0.60418c-2.31616,-2.39337 -5.4854,-2.99754 -7.37511,-5.91212l-0.68719,-0.34346l-0.16587,0.34346c-0.43252,3.42995 0,7.03173 0.77005,10.28381c0.51544,1.71799 0.68716,3.7736 2.14441,5.05895l11.91284,-0.08281zM150.48657,194.53838c-1.11367,-2.13844 -2.31628,-4.28289 -2.74274,-6.68204c-1.28552,-2.91458 -1.9727,-6.08982 -2.39922,-9.3419c-0.85889,0.08282 -1.37434,0.76996 -2.06144,1.36835l-5.14189,2.91454c-1.0308,2.14444 -0.25472,4.97005 -0.68724,7.3692l0.60425,3.85642l0.34358,0.60435l11.82398,0.08281zM161.88401,165.82554c-1.71205,0.68716 -3.42992,1.8008 -4.5436,3.25805c0.17174,1.8838 2.39915,2.74277 3.34698,4.37183c0.77005,0.50946 1.80085,0.50946 2.6539,0.85294c-0.25473,-2.91438 -0.59829,-5.82894 -1.45725,-8.48283M165.4859,149.87849c1.11367,2.74859 3.42986,5.05895 4.37174,7.71881c-1.629,-1.62906 -3.4299,-3.00351 -5.14189,-4.5436l-0.51532,0.083c0.25473,1.45709 0.17172,3.17505 1.80077,4.11691c1.11367,0.85907 1.36842,2.39915 2.82567,2.91458c1.45732,1.88374 3.42991,3.16926 5.1419,4.5436c0.26071,-2.06151 -0.25471,-4.11712 -0.16587,-6.17264c-0.51532,-1.45726 1.02481,-3.25799 -0.60418,-4.02815c-0.77016,1.36836 -0.94196,3.08631 -1.71199,4.45462c0,-1.80073 -0.00001,-4.11113 -0.08885,-5.91188l-4.11113,-4.45484c-0.9419,-0.7759 -1.45726,-1.97846 -2.65986,-2.31616c-1.19655,1.36836 0.59829,2.39918 0.85902,3.5958M168.82688,140.88029l-0.08288,0.94184c0.85303,0.8589 1.19662,2.22723 2.48802,2.6597c0.68117,-0.7759 0,-1.97253 -0.26071,-2.9144c-0.42645,-0.6871 -1.54015,-1.71199 -2.14444,-0.6871M205.60205,127.24935c-0.85896,0.34364 -0.4264,1.37451 -0.51538,2.06161c-0.08288,2.48198 -1.62905,4.62641 -0.68717,7.19746h0.17185l1.28542,-3.51293l-0.17168,-3.00332c0.08884,-0.94184 0.77597,-2.13844 -0.08307,-2.7428M275.9771,70.93743c-1.37439,1.71199 -3.17512,3.424 -2.83155,5.82894c0.9477,1.8839 2.91441,4.02833 4.97595,4.79849c5.56847,0.51522 6.85389,-5.82912 10.02314,-9.00433c4.20587,-5.48548 0.52131,-12.51116 -1.19656,-17.91363c-0.59842,-1.28554 -1.19671,-2.57105 -2.48812,-3.42399c-1.62301,-0.85907 -3.51272,0 -5.05304,0.59819c-1.80085,0.59839 -1.629,2.48209 -2.39915,3.77361c0,1.7948 0.68132,3.25208 1.36845,4.70939c0.94184,2.14438 3.25818,3.60169 3.08625,6.17259c-0.68709,2.57105 -3.6017,3.08644 -5.48541,4.46077M296.97722,84.13579c-0.51544,2.5709 2.7427,3.6017 4.20002,5.14178c0.42658,1.11381 0.85902,2.39933 2.14444,2.83171c1.629,1.02471 1.712,3.42386 3.76757,4.02821c1.11375,1.02481 2.74873,0.68711 3.94527,0.17173c2.83153,-1.45726 5.2307,-3.85642 7.45818,-6.17259c1.28542,-1.80097 1.36842,-4.28889 0.59826,-6.34456l-2.05558,-2.8316c-3.25818,-2.48209 -6.08384,-5.65115 -8.83239,-8.74346c-1.19672,-2.73681 -3.08047,-5.56841 -5.4856,-7.62411c-1.02471,-0.43238 -2.22729,-0.59819 -3.25799,-0.17174c-1.11375,0.51544 -1.27961,1.71199 -1.36845,2.65388c0.17174,2.23335 1.03072,4.37185 0.59829,6.68801c0.94787,1.0308 1.62902,2.31616 2.31616,3.51297c0.94201,3.00328 -2.0556,5.14178 -4.02817,6.85976M329.20875,93.22289c-3.94527,-0.94783 -8.83247,-0.9478 -11.23161,2.82561l0.08886,1.62923c3.25218,2.31615 7.36931,2.65964 11.56933,2.74263c1.20254,-0.17173 2.57102,0.08893 3.42986,-1.02487c0.94201,-1.80073 -0.59829,-3.25799 -1.71197,-4.54353l-2.14443,-1.62906M401.28433,194.41396c-3.79126,42.95966 -24.36482,81.09745 -55.12139,107.82577v-0.1184c-6.59916,-0.43244 -13.5419,0.08281 -20.31872,-0.17773l-85.28562,0.0888l-84.77597,0.08892l-21.87681,0.08281c-34.13909,-29.67832 -55.71961,-73.42004 -55.71961,-122.20292c0,-16.19566 2.38729,-31.82874 6.81834,-46.57903c1.45129,-0.51536 2.99746,-1.19674 4.62058,-0.77011c0.85896,0.34348 1.0307,1.19657 1.28542,1.88374c0.9419,0.77016 1.45732,1.80077 2.39915,2.48806c1.28552,1.37435 -0.50946,3.94522 1.37439,4.88711c2.39915,-0.59826 4.62647,-1.54605 6.77088,-2.8316c1.36839,-1.629 -0.08884,-3.68469 -0.34358,-5.48549c0,-1.45726 -0.25471,-3.08625 1.11375,-4.11706c3.00338,-1.795 6.51621,-2.99736 10.20086,-2.31026c2.39915,1.28535 0.08884,4.45466 1.97257,6.00085c1.45726,0.17179 2.39915,-1.45726 3.42996,-2.39915c0.68116,-2.48809 -1.0308,-5.31967 0.59829,-7.63003c0.85896,-0.8589 1.88373,-1.28535 2.99742,-1.37425c4.88715,-0.59826 3.51876,5.48541 7.45819,6.59921c0.77597,0.08874 1.37428,-0.16599 1.88972,-0.77016c1.19655,-2.74282 -0.68717,-5.91205 0.25471,-8.48294c0.17174,-0.77016 1.1137,-1.2026 1.80085,-1.28554c1.11367,0.59838 2.14444,1.54027 2.99742,2.48211c2.57689,1.0308 5.23074,2.40514 6.94273,5.05901l0.51544,0.08294c1.54612,-1.02481 1.71786,-3.16925 2.31615,-4.88124c0.25479,-2.31615 -0.34358,-5.05897 0.59839,-7.2034l0.9419,-0.1718c2.06144,1.9727 4.28886,3.85648 6.00085,6.08966c1.0307,0.8531 0.5153,2.99751 2.22729,2.74281c1.71799,-0.08892 1.80086,-2.14443 2.83166,-3.25806c0.85889,-1.8009 0.77003,-4.11706 1.03073,-6.25557c0.42645,-0.43237 0.17172,-1.54619 1.11369,-1.54619c2.6539,2.22735 3.34105,5.5744 5.56836,8.1453l1.62911,-0.26072c0.34358,-1.02481 0.59831,-2.22723 0.43244,-3.51277c0,-1.54619 -1.88973,-3.08624 -0.43244,-4.6265l1.28541,0.42645c1.11375,1.45726 1.88971,2.9975 3.25818,4.28885c0.42652,0.50946 1.28541,0.50947 1.88374,0.16591c0.34358,-0.42645 0.68723,-0.94184 0.51536,-1.54026c-1.02483,-2.05546 -2.05558,-4.02815 -3.08625,-6.0836c-0.34358,-0.43261 -0.25471,-1.28553 0.34358,-1.62923l1.37427,0.25471c0.77016,1.20254 1.9727,2.31634 2.91458,3.42995c0.7701,0.34364 1.54015,-0.083 2.14444,-0.51536l-0.08888,-0.0888c1.28542,-2.31035 3.34098,-4.70951 1.97259,-7.54111c-0.42645,-1.629 -1.71786,-2.99754 -1.629,-4.79832c0.0888,-0.59839 0.68711,-1.11362 1.28542,-1.37427c2.31628,-0.33771 3.42996,2.06143 4.97003,3.42978l0.85896,0.17191c0.85903,-0.51544 1.03073,-1.54026 1.45726,-2.39915c0,-2.8316 -2.57095,-4.6325 -3.51272,-7.11466c-0.26071,-0.51536 -0.6043,-1.45726 0.08288,-1.88971c2.91447,-0.33749 4.88717,2.14443 7.20347,3.69066l0.76997,0.17173c0.59829,-0.17173 0.9419,-0.68718 0.85902,-1.37427c-0.85903,-2.57096 -2.06154,-4.97003 -3.5187,-7.28644c-0.3437,-0.42645 -0.50957,-1.28535 0.17168,-1.54003c2.14442,-0.60443 2.91458,2.65383 5.05901,2.48789c0.51532,-0.17773 1.11375,-0.68716 0.94184,-1.37431c-1.28542,-1.28554 -1.71199,-2.83155 -2.39911,-4.45479c-1.2026,-2.06144 -4.283,-3.25805 -4.11711,-6.00666l0.94783,-1.11381c4.11115,-0.85293 6.68212,3.51879 10.79915,3.34705c0.77011,-0.68717 1.71199,-1.45733 1.62911,-2.65987c-2.91458,-2.48198 -1.1137,-6.94273 -4.28882,-9.43061c-0.77016,-1.11381 -2.6539,-1.19664 -2.74286,-2.82581c0.08897,-0.68716 0.51538,-1.36834 1.20252,-1.80077c1.88383,-1.11375 3.93941,0.0888 5.65727,0.59826c2.05558,1.37445 4.02835,3.08645 6.59916,3.17525c1.80086,0.17174 3.34116,0.85309 5.23086,0.59838c1.02471,-0.34364 1.96671,-1.11381 1.96671,-2.31634c-0.08307,-1.71199 -2.22743,-1.28535 -2.9146,-2.74261c-0.42658,-0.42664 -0.083,-1.28552 -0.083,-1.88377c-0.17174,-1.28554 -1.45726,-1.62918 -2.22731,-2.48209c-1.37439,-1.1196 -3.85642,-0.77609 -4.46071,-2.8316c0.43244,-2.05564 2.74273,-2.57106 4.28886,-3.42995c2.91458,-1.20254 4.79832,1.97269 7.19746,3.00332c1.45726,0.8531 2.74865,2.39915 4.46066,2.65387c1.02488,0.26065 2.13864,1.71796 3.16932,0.51536c0.51532,-1.11356 -0.17187,-2.22736 -1.0307,-2.91452c-0.33778,-1.36836 -0.08307,-3.00332 -0.50957,-4.28286c-0.85889,-2.74859 -4.71531,-3.09231 -4.54357,-6.17264c0.17186,-0.60411 0.85896,-1.20254 1.54026,-1.29145c1.03076,-0.0828 1.8009,0.94779 2.65973,1.54618c1.80086,0.77016 3.85642,0.77016 5.65727,1.62906c1.28558,0.85889 2.31629,2.14444 3.93941,1.9727c1.37428,-0.51544 2.57687,-1.37434 4.28886,-1.2026c2.5709,-1.45725 5.31373,-2.7428 8.40001,-3.34098c1.54012,-0.17174 2.99742,0.34344 4.45473,-0.26072c3.25811,-2.31035 7.20344,-4.02815 11.23155,-3.16925l1.54032,-0.77016c1.0307,-0.08874 2.40497,-0.17172 2.83155,-1.45726c1.28542,-1.629 2.99747,-3.16925 5.23069,-2.91454c1.28547,-0.0888 2.39918,0.17191 3.08634,1.28554c1.71199,1.45725 2.91458,3.77344 5.05895,4.54353c1.8839,0 3.93936,0.17179 5.65136,0.77016c1.11367,0.85889 3.08645,1.80097 2.57099,3.60167l0.94784,2.22742c0.16587,0.9419 -1.11367,1.629 -0.08886,2.48789c1.28541,0.25471 2.83159,-0.08876 4.19999,0.083c2.14441,0.51536 4.54357,2.39915 4.79832,4.80424c0.77597,1.27962 2.23331,2.39915 3.6017,3.08031c1.80085,0.51544 2.48803,2.65987 3.86228,3.69066c3.16925,1.36836 6.33856,2.99736 8.39999,6.16662c2.6539,2.8316 5.82913,4.11713 8.90945,5.82913c6.1727,4.02821 12.77179,7.12046 18.34612,12.34521c5.65727,1.37445 10.45572,4.88723 15.68642,7.36938c1.71204,1.29128 3.85642,2.40508 4.62647,4.37179c1.45726,1.97252 3.08644,3.7735 3.77356,6.00085c3.68457,2.48796 5.48541,6.60501 7.28624,10.28971c1.71204,3.60169 -0.25471,7.36921 -2.48794,10.28374l-3.42986,5.65722c-1.19674,1.20254 -2.65388,3.34697 -4.5378,2.65986c-1.54612,-0.60416 -1.7178,-2.22742 -2.06137,-3.60177c-0.08307,-1.37425 -1.54033,-1.97264 -2.48217,-2.74263l-0.51544,-1.71199c-1.20241,0 -1.88371,1.5401 -3.34096,1.0249c-1.11375,-0.51544 -0.17185,-2.13869 -1.45732,-2.39915c-1.20254,0.08274 -0.43244,1.54009 -1.0307,2.05544c-0.68717,0.43244 -1.54012,0.08898 -2.22742,-0.08298c-1.54612,-0.17173 -0.42645,-1.712 -1.11356,-2.5709c-0.85903,-0.17173 -0.85903,0.85889 -1.37445,1.19664c-0.51525,0.43244 -1.11367,0.51536 -1.71199,0.51536c-1.629,-0.25468 -0.26058,-2.14438 -1.2024,-2.82555c-0.68728,-0.43261 -1.19672,0.42645 -1.80084,0.76993c-1.28562,1.02481 -3.08645,0.68716 -4.71544,0.85907c-4.71544,0.25471 -8.31115,-1.71796 -12.33944,-2.91458c-4.37173,-1.0308 -8.57175,-2.65979 -12.77173,-4.02815c-4.02825,-2.31632 -8.22827,-4.46077 -12.77767,-5.48558c-1.6232,-1.45715 -2.99758,-3.42978 -4.79832,-4.71531c-2.05558,-1.11362 -4.37185,0.16591 -6.42741,0.34364c-4.11713,0.59819 -6.94273,-2.74878 -11.05987,-2.31634c-2.9144,0.25471 -4.88111,2.99754 -7.71285,3.42998c-1.36828,0.34364 -3.42992,-1.9727 -3.76757,0.42645c0.42652,0.9419 1.62313,1.11381 2.57095,1.54026c3.5129,0.51545 6.33862,2.91451 8.74359,5.74614c2.39915,1.28554 2.73688,3.94539 3.25812,6.25557c0.68136,1.80098 1.8839,3.42996 1.8839,5.48548c-0.17187,1.20254 -1.45726,0.51536 -2.22744,0.7701c-1.37427,-0.25471 -1.0307,-1.9667 -2.40512,-2.5709c-1.11356,-0.16599 -2.48203,-1.11381 -3.6017,-0.16599c-1.02478,0.85314 0.08884,1.795 0,2.82581c0.52141,1.0307 0.26065,2.57095 1.71797,2.9974c0.68709,0.51536 0.68711,1.37426 0.59831,2.14444l1.0307,4.71548c1.11367,2.14444 2.05558,4.46059 3.25812,6.59905c2.05558,3.25805 5.31373,5.82912 8.14529,8.40001c2.82574,2.5709 5.39661,5.74611 8.31115,8.48892c4.02835,4.45466 9.25902,6.34437 14.14615,9.08717c4.02835,1.36836 9.51373,1.9667 11.05388,6.85378c-0.34358,2.65987 -3.34096,2.05567 -4.88714,3.34698c-2.48209,-0.08874 -5.39656,-0.08874 -7.71285,0.50946c-3.34098,0.85907 -6.77082,-0.08274 -10.029,-0.50946l-4.11115,-1.629c-4.37185,-1.629 -6.94866,-6.51628 -10.9768,-9.08717l-9.08731,-8.83239c-5.82315,-4.20012 -12.51114,-6.25556 -18.68374,-9.76853c-3.16925,-1.71199 -6.00085,-4.3717 -9.43081,-5.57424c-4.53761,-2.22742 -9.25307,-6.17277 -11.74107,-10.79916c-1.0307,-3.7736 -2.57095,-7.28638 -4.02809,-10.88808l-0.68728,-0.17172c-0.68717,2.06144 -1.03075,4.20586 -1.36828,6.26149c-1.11974,1.8838 -0.85902,4.28296 -2.31632,6.00085c0,-3.94534 0.25473,-8.14529 0.34357,-12.26235l-0.51537,-1.11382c-1.28548,1.62918 -0.8589,4.11712 -1.62907,6.00085c-0.51538,-1.97251 -0.08284,-4.11113 -0.08284,-6.25557c-0.17191,-0.68716 0,-1.629 -0.60429,-1.97253c-0.77016,0.76997 -1.02487,1.8838 -1.11374,2.99735c-0.34358,4.63258 -1.11369,9.08717 -1.96671,13.45903c-0.68717,1.97264 -0.77598,4.11708 -1.71786,5.82912c-0.08299,-2.74284 0.42645,-5.39673 0.34358,-8.13937c-0.08884,-1.71796 0,-3.60167 -0.51544,-5.23087l-1.28541,-0.17179l-1.37426,2.8316c-1.27962,2.13864 -1.79504,4.53778 -2.73687,6.85396c-0.60429,2.8316 -2.06155,5.31376 -3.17511,7.97355c-0.85903,1.11362 -1.03089,2.65967 -1.97277,3.60167c0.43244,-2.7428 0.85902,-5.4026 1.62918,-7.97347c0.4264,-1.9727 1.11356,-3.85642 1.11356,-5.82912c-0.76997,0.51536 -1.11356,1.45726 -1.62902,2.22736c-1.28541,3.00332 -2.74273,5.91795 -3.68467,9.08719c-0.17174,0.9419 0.25486,2.22742 -0.17172,3.08631c-0.34358,-0.34352 -0.3436,-1.11363 -0.9419,-1.03063c-3.94527,4.71532 -6.94269,9.7743 -8.91544,15.17676l-0.08282,-0.0888c0.76997,-7.19759 4.71526,-13.02653 7.96746,-19.19913l-0.17174,-1.88971c-1.02488,-2.57105 -2.57099,-4.88728 -3.5957,-7.45819h-0.26071c-0.77016,0.26051 -0.94188,1.03064 -1.19663,1.62906c-0.60429,4.03415 -0.94197,7.89057 -1.45726,11.9187c-0.51544,2.05567 -1.9727,3.59577 -3.16931,5.22476c-1.2914,2.83178 -2.74865,5.65741 -3.60167,8.48894c-0.17168,-2.31616 0.68131,-4.20005 0.68131,-6.51621l0.94183,-3.7675c0.17773,-2.31632 0.17771,-4.71548 -0.16587,-7.03166c-0.17168,-1.9727 -1.20254,-3.6847 -0.77596,-5.82912c-0.25475,-0.51522 -0.853,-0.5982 -1.4513,-0.51522c-0.60429,0 -0.94787,0.68712 -1.11971,1.11357c0.34358,2.31616 0.08884,4.46059 0.26071,6.77101c-1.37439,3.00332 -5.65725,0.51538 -6.68801,3.94518c-1.11369,2.05567 -1.37425,4.5436 -1.45726,7.03171c1.71199,1.88371 3.08636,4.02815 4.2,6.08379c-1.71199,-0.51536 -3.25805,-1.28554 -4.88715,-1.8009l-0.25475,0.25472c-0.25475,3.60169 -0.85896,7.37513 -0.25472,11.05984c0.50946,1.0308 0.68133,2.31615 1.45735,3.16925c1.02483,-0.08294 1.96671,0.51542 2.39915,1.45732c1.11369,0.85889 2.13845,2.65982 3.68455,2.31618c1.02487,-2.48216 1.36848,-5.4855 4.02815,-7.02575c0.59829,0 1.28558,-0.60416 1.80085,-0.08873c0.59829,0.85889 0.85894,1.88374 1.11369,2.8316l3.08631,0.94184c2.31032,0.85889 4.54361,-0.51538 6.94276,-0.17174c1.28552,-0.42664 1.9727,-1.9727 3.25809,-2.48806c1.28558,-0.25471 2.74274,0 3.76757,-1.19662c1.54612,-0.85889 3.69057,-0.77011 4.71544,-2.74282c0.51532,-0.59819 1.45726,-0.51524 1.88971,-1.20236c-0.77597,-1.71199 -1.03068,-3.85643 -0.68709,-5.82913c0.08282,-1.0308 1.11357,-1.80097 0.85884,-2.99754c-0.17173,-0.68717 -0.9477,-0.68718 -1.37432,-1.11361c-1.11369,-1.54623 0,-3.34698 0.17191,-4.88725c0.6871,-1.11362 1.80086,-2.05551 3.08625,-2.23321c0.08288,-0.50946 -0.42658,-1.19657 0.42645,-1.54026c1.88383,-1.0308 3.85642,-1.9727 6.1727,-2.05564c3.94527,0.08294 8.0564,0.77011 10.79911,3.7736c-3.59571,-1.29151 -8.74352,-1.54623 -11.56925,1.45726c-0.60411,0.76997 -1.71785,0.50946 -2.488,0.6812c-0.34358,0.68717 -0.25475,1.45732 0,2.14443c0,0.8589 -0.77011,1.88378 0.08885,2.65986c0.68131,-0.17174 1.28547,0.42645 1.8839,0.083c0.4264,-1.62924 2.22724,-2.48812 3.6017,-3.25822c2.65389,-0.77016 5.82901,-0.17174 8.48283,0.34362c2.74274,0.77016 5.7462,2.31617 7.1146,4.97005l-4.20001,-1.629c-2.31031,-0.34368 -4.79826,-1.11381 -7.36927,-0.68118c-1.28541,0.85293 -2.14443,2.31019 -3.42985,3.08625l-1.62918,0.50946c-0.51525,1.54605 -0.85884,3.17505 -2.31609,4.28886l-1.54032,0.08282l-1.03073,1.0308c1.37431,2.14444 0.94788,4.71531 0.85903,7.2034c-0.17186,0.8531 -1.11367,0.68116 -1.62911,1.11361c-0.17173,1.36851 -0.51531,2.99751 -2.05558,3.51294c-0.85884,0.42645 -1.88973,0.17174 -2.5709,-0.08897c-1.28551,0.51544 -2.91458,0.51542 -4.2888,0.34368l-2.31634,1.718c-1.62314,0.76992 -2.91454,-0.43262 -4.45473,-0.51545l-1.19655,0.9419c-1.54612,0.77011 -3.51883,0.59819 -5.14782,0.59819l-2.13855,2.39915l-0.34358,5.40265l0.17184,0.42645c1.629,-0.34352 3.16928,-1.02487 4.79827,-1.36832l2.57099,1.20254c1.8009,0.08282 3.00334,-1.29151 4.88717,-1.29151l1.54013,0.34368l3.51889,-2.65387c0.34354,-0.60435 -0.08886,-1.629 0.42639,-2.14444c0.68716,-0.77011 1.45726,-1.37426 2.48799,-1.28552c1.45726,-1.0308 3.51284,-0.59837 5.22484,-0.9419c2.14441,-0.17174 1.54613,-2.74281 3.51887,-3.34099c0.85296,-1.54623 2.57082,-1.63499 3.76745,-2.74877c-0.08288,-0.9419 -1.19662,-1.36836 -0.85303,-2.48196c0.16587,-0.77609 0.68132,-1.54618 1.45726,-1.88971c4.88131,-2.48209 10.53863,-0.16593 14.99917,1.54605c2.22742,1.28554 4.88131,2.91452 6.25556,5.31367c-1.45726,-1.19657 -2.9144,-2.14443 -4.54357,-2.83159c-3.34098,-0.77011 -7.88457,-2.05565 -10.71613,0.68716c-0.42658,0.51544 -1.45726,0.34368 -1.54032,1.03081h1.03073l0.68125,0.59826c-0.59826,1.20254 -2.31031,1.45726 -2.22723,3.00351c1.28541,2.31019 3.42986,-0.26071 5.05885,-0.3437c0.17186,-1.45725 1.80084,-1.54605 2.82574,-1.88374c2.57102,-0.68716 4.63239,0.68118 6.43324,2.39318c1.54019,2.14444 3.76762,4.03414 4.62664,6.51627c0.25468,1.97264 1.2024,4.63231 -0.17191,6.3443c-0.94184,-2.48198 -2.05558,-5.05878 -3.77337,-7.2862c-1.62918,-1.80098 -3.76762,-3.08631 -6.33864,-2.48215c-0.77597,0.083 -1.54613,-0.60415 -2.06137,-0.17772c-0.42662,1.71796 -2.57105,1.37433 -3.93945,1.80079c-1.28541,1.20254 -2.488,3.00351 -4.28886,3.17525c-1.28541,0.42645 -2.82569,0.25471 -3.76757,-0.51544c-1.0307,-0.08874 -1.37425,-1.71198 -2.57686,-1.11357c-1.02483,0.17174 -0.25475,1.28535 -0.68125,1.88374c-1.03076,1.1196 -2.40504,1.28552 -3.77344,1.45726c-1.629,0.51544 -2.91458,3.00332 -4.71544,1.62906c-2.31616,1.0308 -4.5436,2.3991 -7.0316,3.08625c-0.59826,0.68716 -1.36839,1.37433 -1.62313,2.22743l0.25473,0.08892l192.86255,-0.17193z" fill="#000000" fill-rule="nonzero" stroke="none" stroke-width="1"/><path d="M165.42798,149.78893c-0.26072,-1.19663 -2.04439,-2.23372 -0.84783,-3.60208c1.2026,0.33771 1.7373,1.53305 2.6792,2.30895l4.21124,4.47988c0.08884,1.80073 -0.0439,4.10107 -0.0439,5.90178c0.77005,-1.36828 0.89826,-2.9731 1.66843,-4.34142c1.629,0.77016 0.2819,2.6039 0.79722,4.06119c-0.08884,2.05551 0.38681,4.1474 0.12611,6.2089c-1.71199,-1.37433 -3.74093,-2.64782 -5.19826,-4.53152c-1.45725,-0.51544 -1.79822,-2.10963 -2.9119,-2.96871c-1.62906,-0.94184 -1.54925,-2.75821 -1.80399,-4.21532l0.70469,0.01485c1.71199,1.5401 3.38438,2.76218 5.01338,4.39123c-0.9419,-2.65987 -3.28072,-4.95913 -4.3944,-7.70773" data-paper-data="{&quot;noHover&quot;:false,&quot;origItem&quot;:[&quot;Path&quot;,{&quot;applyMatrix&quot;:true,&quot;segments&quot;:[[[353.29936,221.35757],[0,0],[1.04444,2.57772]],[[357.3993,228.59651],[-0.88333,-2.4945],[-1.52772,-1.52778]],[[352.57708,224.3354],[1.60556,1.44433],[0,0]],[[352.0938,224.41323],[0,0],[0.23889,1.3665]],[[353.78263,228.27418],[-1.52778,-0.88328],[1.04444,0.80567]],[[356.43263,231.00757],[-1.36667,-0.48339],[1.36672,1.76661]],[[361.25486,235.26868],[-1.60556,-1.28889],[0.2445,-1.93333]],[[361.0993,229.47979],[-0.08333,1.92772],[-0.48328,-1.36667]],[[360.53269,225.70207],[1.52772,0.72228],[-0.72228,1.28328]],[[358.92713,229.87973],[0.72217,-1.28322],[0,-1.68878]],[[358.8438,224.3354],[0.08333,1.68878],[0,0]],[[354.98825,220.15751],[0,0],[-0.88333,-0.72767]],[[352.49375,217.98534],[1.12783,0.31672],[-1.12217,1.28328]],[[353.29936,221.35757],[-0.2445,-1.12222],[0,0]]],&quot;fillColor&quot;:[0,0,0,1]}]}" fill="#e3000b" fill-rule="nonzero" stroke="none" stroke-width="0.5"/><path d="M174.968,185.11818c-1.97257,-1.11381 -3.69746,-3.08274 -5.75302,-3.77009l-1.85134,-1.84306c-0.43244,-2.91458 -0.64451,-6.23149 -0.64451,-9.22885c1.11375,0.59826 1.73585,1.87398 2.8496,2.64407c1.97257,1.03064 3.30975,3.26934 5.19358,4.46595l0.29043,7.55908z" data-paper-data="{&quot;noHover&quot;:false,&quot;origItem&quot;:[&quot;Path&quot;,{&quot;applyMatrix&quot;:true,&quot;segments&quot;:[[362.22158,254.15751],[[361.89936,247.16307],[0,0],[-1.76672,-1.12222]],[[357.15491,243.06318],[1.84994,0.96656],[-1.0445,-0.72222]],[[354.50486,240.57429],[1.0445,0.56106],[0,2.811]],[[355.1493,249.09651],[-0.40556,-2.73339],[0,0]],[[356.83819,250.77973],[0,0],[1.92778,0.64461]],[[362.14375,254.31873],[-1.84994,-1.04456],[0,0]]],&quot;closed&quot;:true,&quot;fillColor&quot;:[0,0,0,1]}]}" fill="#e3000b" fill-rule="nonzero" stroke="none" stroke-width="0.5"/><path d="M161.92055,165.72534c0.85896,2.65388 1.22766,5.75572 1.4824,8.67007c-0.85303,-0.34347 -1.93456,-0.32444 -2.70462,-0.83388c-0.94784,-1.62906 -3.28739,-2.62734 -3.45913,-4.51114c1.11367,-1.45725 2.96932,-2.63787 4.68135,-3.32503" data-paper-data="{&quot;noHover&quot;:false,&quot;origItem&quot;:[&quot;Path&quot;,{&quot;applyMatrix&quot;:true,&quot;segments&quot;:[[[349.92158,236.31318],[0,0],[-1.60561,0.64444]],[[345.66047,239.36868],[1.04444,-1.36667],[0.16106,1.76667]],[[348.79936,243.46873],[-0.88889,-1.52778],[0.72217,0.47778]],[[351.28825,244.26862],[-0.8,-0.32211],[-0.23889,-2.73317]],[[349.92158,236.31318],[0.80556,2.48889],[0,0]]],&quot;fillColor&quot;:[0,0,0,1]}]}" fill="#e3000b" fill-rule="nonzero" stroke="none" stroke-width="0.5"/><path d="M167.18875,194.70419l-12.03939,0.09866c-1.45725,-1.28535 -1.67459,-3.39226 -2.19001,-5.11023c-0.77005,-3.25209 -1.17902,-6.97132 -0.74654,-10.40129l0.16848,-0.34595l0.68936,0.34148c1.88972,2.91458 5.17965,3.50548 7.4958,5.89882l2.36141,0.66637l3.00665,2.10554c0.68709,2.14441 0.91238,4.42857 1.33896,6.48424z" data-paper-data="{&quot;noHover&quot;:false,&quot;origItem&quot;:[&quot;Path&quot;,{&quot;applyMatrix&quot;:true,&quot;segments&quot;:[[[354.90491,263.07984],[0,0],[-0.40006,-1.92789]],[[353.62158,257.05212],[0.64439,2.01111],[0,0]],[350.80486,255.12423],[[348.63819,254.55762],[0,0],[-2.17217,-2.24456]],[[341.72158,249.01306],[1.77222,2.73339],[0,0]],[341.07713,248.69095],[[340.92158,249.01306],[0,0],[-0.40561,3.21672]],[[341.64375,258.65751],[-0.72217,-3.04989],[0.48339,1.61117]],[[343.65486,263.40195],[-1.36667,-1.20544],[0,0]],[354.82708,263.32429]],&quot;closed&quot;:true,&quot;fillColor&quot;:[0,0,0,1]}]}" fill="#e3000b" fill-rule="nonzero" stroke="none" stroke-width="0.5"/><path d="M150.29101,194.79447l-11.95001,-0.07962l-0.34923,-0.60857l-0.63135,-3.88871c0.43252,-2.39915 -0.33918,-5.3342 0.69162,-7.47863l5.22029,-2.96222c0.68709,-0.59839 1.23122,-1.28459 2.09013,-1.36739c0.42652,3.25209 1.19712,6.56582 2.48264,9.48042c0.42645,2.39915 1.59551,4.59257 2.7092,6.73101z" data-paper-data="{&quot;noHover&quot;:false,&quot;origItem&quot;:[&quot;Path&quot;,{&quot;applyMatrix&quot;:true,&quot;segments&quot;:[[[339.23269,263.2409],[0,0],[-1.04444,-2.0055]],[[336.66047,256.97429],[0.39994,2.25],[-1.20561,-2.73339]],[[334.41041,248.21318],[0.4,3.04989],[-0.8055,0.07767]],[[332.47713,249.49645],[0.64439,-0.56117],[0,0]],[[327.65491,252.22979],[0,0],[-0.96672,2.01111]],[[327.01041,259.14084],[0.40561,-2.25],[0,0]],[327.57708,262.75751],[327.8993,263.32429],[338.98819,263.40195]],&quot;closed&quot;:true,&quot;fillColor&quot;:[0,0,0,1]}]}" fill="#e3000b" fill-rule="nonzero" stroke="none" stroke-width="0.5"/><path d="M278.54827,129.82329c-0.85903,-2.14443 2.22729,-1.88378 2.99746,-3.60163c-0.25473,1.37425 -1.54032,2.39915 -2.31032,3.60163h-0.68716" fill="#000000" fill-rule="nonzero" stroke="none" stroke-width="1"/><path d="M298.94856,108.39154l0.08884,-0.42662h0.083z" fill="#000000" fill-rule="nonzero" stroke="none" stroke-width="1"/><path d="M293.53094,319.77535v-0.42652c-0.94196,0 -1.45726,-1.11367 -2.39922,-1.0307c-0.26065,0.68717 0.68126,1.2854 1.11367,1.71197l1.28554,-0.25479M285.04791,322.43514c0.77016,1.62911 2.39318,0 3.5129,0l-0.26071,-1.0307c-0.25473,-0.68717 -1.02487,-1.03082 -1.71199,-0.85903c-0.77005,0.26065 -2.05559,0.68717 -1.5402,1.88972M285.38561,310.08986v1.45732c0.68716,-0.43244 1.71784,-0.94189 1.97257,-1.71205l-1.0307,-0.6871l-0.9419,0.94184M272.09837,328.60192c0.43244,-0.16587 1.37441,0 1.20255,-0.7701c-0.68716,-0.68717 -0.9419,-1.5402 -1.20255,-2.39915c-1.11375,-0.08884 -2.31029,-0.68716 -3.16919,0.08886c-0.59839,-0.77603 -1.28554,-1.80086 -2.22744,-2.06151c-0.51538,0.42652 -0.51536,1.03073 -0.59829,1.62904l1.19662,1.20256c0.60429,0.25473 0.77016,1.9667 1.71799,0.94189c0.9419,0.59829 1.88372,1.36842 3.08032,1.36842M266.87367,330.83513c0.77005,0.08294 1.11361,-0.68716 1.03073,-1.28542c-0.43244,-0.94787 -1.54619,-1.54619 -2.57686,-1.54619c-0.51544,0.85903 -1.19668,1.97264 -0.77016,3.00344c0.77016,0.08288 1.54612,-0.08893 2.31628,-0.17187M263.87012,322.34629c0.6871,-1.28548 -1.11375,-1.19657 -1.62911,-2.05558l-0.50946,-1.80085c-1.03076,0 -1.7179,1.03077 -2.7486,0.51545c-1.45726,1.28542 1.0307,2.14444 0.8589,3.42986c0.59829,1.5402 2.39915,0.17185 3.6017,0.33764l0.42658,-0.42652M261.2992,329.3779c1.03076,-1.03076 1.37428,-2.57689 1.45726,-4.11701c-0.85896,-1.11375 -2.05558,0.08288 -2.99742,0.17174c-0.59829,0.43244 -1.11377,1.0308 -0.9419,1.80084h0.25475l1.54599,0.25471l-0.34352,0.77012c-0.60418,0.77603 0.59835,0.94783 1.0248,1.1196M258.81717,331.94891c0.85303,-0.17187 1.80073,-0.34364 2.22731,-1.20259l-0.17174,-0.34358c-0.77016,0 -1.80083,-0.42654 -2.14441,0.43244l0.08884,1.11375M261.55394,313.60272c-0.33761,0.60429 -1.19663,1.37433 -0.50946,2.06157l1.45726,0.25472c0,-0.94196 0.00002,-1.97264 -0.6871,-2.57099l-0.26071,0.25471M269.52753,320.46263l-0.77016,0.51532c0.34358,0.85303 0.60429,1.71198 1.11374,2.39915c0.68709,0.34358 1.2854,-0.17177 1.80085,-0.42651c0.08288,-0.60423 -0.25473,-1.20254 -0.34358,-1.7179c-0.083,-0.9419 -1.11374,-0.68719 -1.80086,-0.77007M253.41479,322.68993c0.8589,0.08294 1.80083,0.51538 2.74267,0.26067l-0.42652,-1.37435c-0.17174,-1.45726 -1.71789,-0.7701 -2.65973,-1.03073c-0.94196,0.43244 0.08288,1.45726 0.34358,2.14441M241.50189,321.4045v-1.8009c-1.0307,0.1718 -1.80084,0.9419 -2.65979,1.54617l-0.17174,0.77011c0.94184,0.1718 1.88972,-0.17184 2.83155,-0.51538M240.64293,325.68734c0.59829,-0.42645 0.68719,-1.19662 0.68719,-1.96671l-0.17173,-0.34357c-0.68717,0.08294 -1.54618,0.34358 -1.71796,1.03073c0.17179,0.50946 0.60422,1.11367 1.20252,1.27954M234.8139,324.31899c0.6871,-0.43252 0.68709,-1.45726 0.59825,-2.22736c-0.59826,-0.08892 -1.19654,0.08292 -1.79493,0.25467l-0.34358,-1.71199c-1.1196,0.1718 -1.88971,1.36842 -2.40503,2.22742c1.20254,0.68717 2.5709,1.02478 3.94527,1.45726M233.61725,327.66006l0.33764,-0.6813l-0.33764,-0.94776c-0.68717,-0.34364 -1.4632,-0.8531 -2.14443,-0.59837c-0.08884,0.59838 0.08294,1.20254 0.42652,1.62906c0.59829,0.25473 1.03076,0.77011 1.71791,0.59838M223.49932,325.26087c0.77016,-0.083 1.712,-0.25473 2.05558,-0.94189l-1.45726,-0.68723l0.77603,-0.9419c-0.43244,-0.59826 -1.11961,-1.28542 -1.80086,-1.37432c-0.85889,0.85903 -1.11363,2.14444 -1.20248,3.34698c0.34358,0.51538 1.03073,0.51538 1.629,0.59838M218.86692,322.43514c0.77597,-0.77597 2.14442,-1.28542 2.40503,-2.31624l-1.37432,-1.28545c-0.68716,-0.9419 -1.88373,-0.68718 -2.74273,-0.08886c-0.6871,0.77603 0.68717,1.28553 0.9419,1.9727l-0.50946,0.34355c0.16587,0.51538 0.59831,1.28548 1.27962,1.37432M217.84205,323.20526c-0.51538,-0.59826 -1.11367,-1.54608 -1.97257,-1.62906c-0.42658,0.51544 -0.77016,1.11371 -0.85902,1.80086c0.60429,0.7701 1.88972,0.34357 2.74274,0.34357zM212.4395,323.88651c1.0307,-0.08288 0.85894,-1.19662 1.0307,-1.96664l-0.17172,-0.34364c-0.77011,0.083 -1.80084,0.51544 -2.14441,1.28554c0.34358,0.34354 0.60431,1.20255 1.28547,1.02478M210.81051,317.20439c-0.34358,0.59838 -0.16587,1.37433 0,2.05563l0.60412,-0.17184c0.77016,-0.59829 2.14456,-1.03071 1.8009,-2.39915c-0.34358,-1.45726 -1.71789,0.08886 -2.40502,0.51538M209.35319,328.77369c0.51544,-0.59826 1.37432,-1.19664 1.45732,-2.13851c-0.25473,-0.6871 0.17174,-2.83155 -1.19662,-1.88972c0,1.03076 -0.85902,0.85894 -1.54612,1.20258c-0.42658,0.59826 -0.8531,1.28543 -0.77016,2.14444c0.43244,0.5094 1.28548,0.59824 2.05558,0.68116M204.63781,328.43601c0.77606,-0.34354 0.77606,-1.37433 1.0308,-2.0615c0,-0.7701 -0.51542,-1.28545 -0.34368,-2.05551c0,-0.59838 -0.50942,-0.08892 -0.853,-0.08892l-0.51531,-1.45726c-0.59829,-0.25473 -1.0308,0.34364 -1.54612,0.08892c-1.11375,-1.54619 -1.02489,1.11361 -2.22744,1.11361c-0.08288,-0.9419 -0.00001,-2.05551 0.9419,-2.65979l0.85896,-1.45726c-0.68717,0.08892 -0.42645,-0.85296 -0.85896,-1.02481c-1.11363,1.45726 -2.91444,1.80084 -4.02819,3.51283c-0.08288,-1.11367 0.08884,-2.3991 0.85902,-3.34098c0.51532,-0.77016 -0.60431,-0.85902 -0.94189,-1.28554c-0.51544,-0.17174 -0.26069,-1.88971 -1.11965,-0.77603c-2.05558,-0.08288 0.08886,1.88972 -0.9359,2.57688c-3.42995,-0.43244 0.77005,2.48211 -0.9478,3.68464l-1.28554,-1.11361l-0.5983,-1.37435l-0.68718,0.17172c-0.77011,0 -1.36839,-1.36839 -2.14442,-0.68716l0.51542,5.23076c0.43237,1.11367 1.54612,0 2.31616,0.08886c0.59829,0.08294 -0.08288,0.6813 0.34358,0.85304c1.45726,0.68717 2.39914,-0.5983 3.34109,-1.45726l0.17172,0.68718c1.0308,0.08294 1.88383,-0.9419 2.82567,-0.7701c-0.08294,0.68717 -0.59826,1.45726 -0.16587,2.05558c1.88378,0.68717 3.08045,-1.11367 4.88131,-0.59829l-0.77016,1.45726c0.08884,0.85303 1.2026,0.42656 1.88381,0.68717M191.7002,315.48652c0,0.77603 -0.94787,0.34358 -1.37439,0.5213c0.42652,0.8531 1.37439,1.71199 2.14443,2.04972c0.51538,-0.33771 1.28552,-0.93603 1.19667,-1.62318c-0.77016,-0.42652 -0.8531,-1.71786 -1.80085,-1.97259l-0.16587,1.02477M199.58476,315.23178h-1.54612c0.26071,0.85896 1.11367,1.62912 1.88971,2.14443c1.11367,-0.25473 2.31032,-0.1718 3.08633,-0.85896c-0.94774,-0.9419 -1.37432,-2.99748 -3.17519,-2.82561c-1.11367,0.08294 -0.08288,1.02483 -0.25475,1.54013M186.64117,325.17793c-0.94184,-0.94783 -2.31621,-1.2914 -3.68457,-1.62902c0.08294,0.85889 0.77003,1.629 1.02477,2.39915c-0.42652,0.25473 -1.02478,0.17174 -1.62907,0.25473c-0.68717,0.0888 -0.59829,0.77599 -0.59829,1.37428c0.51544,0.59838 1.28552,1.36839 2.14447,1.36839c0.68117,-0.77005 1.71198,-1.02483 2.57088,-1.45726zM177.80872,322.43514c0.85903,-0.34354 1.88971,-0.85896 2.39915,-1.80084c-0.33761,-0.77603 -1.36836,0 -2.13845,-0.08886l-1.20254,-0.59826c-0.68717,1.80078 -2.31029,0.08292 -3.42403,0.42645c0.42658,0.85896 1.1967,1.54619 1.88383,2.23335l1.62905,-0.60429l0.85297,0.43244M180.12499,326.97879c0.17174,-0.94773 0.08288,-1.97259 -0.25475,-2.8316c-0.85896,-0.08288 -1.62911,0.42658 -2.31628,0.85902c-0.25473,1.54012 1.45732,1.629 2.31628,2.31024l0.25475,-0.33764M172.66691,325.00619c0.59826,-0.34364 1.37428,-1.11965 1.45726,-1.88971l-1.80085,-0.8531c-0.59829,0 -1.36842,-0.60417 -1.712,-0.0888c0.59826,1.0307 0.34358,3.00333 2.05558,2.83159M312.04872,323.72069c2.25698,-0.64571 4.44288,-1.65866 6.76503,-2.27477c-23.3103,13.00882 -50.16308,20.42541 -78.7515,20.42541c-28.89057,0 -56.00993,-7.57661 -79.48611,-20.83416l0.26065,0.02371c2.06144,-1.28548 0.43244,-3.77348 1.20249,-5.65721c0.34364,0.51538 0.42658,1.37426 1.11369,1.54012c1.03087,-1.27948 1.62911,-2.91444 3.08633,-4.02819c0.25479,0.94783 0.25479,2.23335 0,3.09225l0.77016,0.42652c2.22736,-1.97257 4.46066,-4.28886 6.85981,-6.00085l0.08288,0.08294c-0.25475,1.20254 -1.19656,2.14444 -1.36835,3.34699c-0.26065,0.7701 -1.37439,0.59837 -1.7179,1.36839c0.1718,0.43252 0.94184,0.08884 1.11957,0.68723l-1.20248,1.02478l-0.1718,1.29139c2.22736,-0.60423 4.20001,-2.06144 6.68796,-2.06144c-0.43237,0.77005 -1.62898,1.37431 -1.37427,2.22729l3.00338,0.17773c1.19662,0.33764 1.36835,-0.77597 1.71205,-1.54612c0.6871,0.51544 1.45713,1.20252 1.80071,1.9727c0.42658,1.02483 1.45732,-0.17186 2.31628,0.25472c0.33761,0.59826 -0.60422,1.0307 -0.77605,1.629c0.59829,0.77016 1.6291,1.28554 2.48799,1.9727l0.08295,-0.17187c0,-1.97257 0.51544,-3.68455 0,-5.65725l-1.36842,0.59829c-0.60423,-1.5402 1.11367,-2.48203 1.03073,-4.02822c-0.68717,-0.34354 -1.45722,1.37431 -1.80086,0.08892c-1.45719,0.85296 -0.94774,2.65383 -1.45719,3.85642c-0.43244,-0.94787 -0.859,-1.88378 -1.29145,-2.8316l1.20258,-2.31035c0.34358,-0.51538 1.11364,-0.51538 1.11364,-1.20254c-0.33764,-1.20254 -1.36835,-0.0888 -2.05551,-0.34352c0.25475,-0.59838 0.68717,-1.11374 0.9419,-1.8009l1.54605,-0.7701l1.54026,1.20254c0.94184,-1.11367 0.42645,-3.00338 2.14442,-3.77347c0.59826,-0.34358 0.94183,-1.28548 1.54012,-1.03077l-0.77003,2.57689c-0.34364,0.42658 -1.0308,0.5095 -1.0308,1.11367l0.68717,0.59829c0.85896,-0.85896 1.45726,-2.05558 2.39922,-3.00338c1.1196,-0.50946 2.23328,-0.94188 3.34692,-1.11361c-0.43244,0.85889 -1.80086,1.20254 -1.45726,2.14441c1.36839,-0.17187 3.08042,-1.11376 4.4548,-0.083c-0.8531,0.16587 -1.88383,0.34358 -2.65394,1.02483c-0.51532,0.9419 1.19668,0.34357 1.62313,0.9419l-0.50946,0.85893c1.71199,0.17187 3.68467,0.00002 5.22483,0.77011c-0.42652,0.43244 -1.45726,0.43244 -1.3684,1.11367l1.3684,0.17184c1.2026,0.34354 2.14444,1.45726 3.51875,1.45726c0.85296,-1.02487 1.28552,-2.39915 2.39915,-3.08631c0,0.77597 -0.59829,1.45722 -0.2606,2.23324c1.629,-1.20254 3.17511,-2.8316 4.88711,-3.86235c-0.34358,1.03076 -1.36842,1.97264 -1.11367,3.08631c0.9419,-0.1718 1.71799,-0.77003 2.57095,-1.11367l0.26065,0.34364h1.19668c0.34358,1.20254 2.05558,0.08879 2.74267,0.77005c-0.85896,0.43252 -1.80086,0.68723 -2.22736,1.45726c0.94196,0.60429 2.48207,0.26065 3.51283,0.77603c-1.11367,0.59838 -2.22729,1.02483 -3.4299,1.54026l-0.08294,0.60417c1.20254,0.16593 2.39915,-0.5213 3.6017,-0.5213c0.25473,1.11367 1.88383,0.17777 2.39915,0.94784l-0.51532,0.68717c0.85889,0.59829 2.05558,0.7701 3.16921,0.85303v-0.94189h0.77606c0,-1.20254 -0.68727,-2.05559 -1.0308,-3.08626l1.28555,-0.25473c0.08288,-2.06155 -2.99757,-1.54618 -2.83171,-3.77347l0.77613,-0.34364c0,-0.85303 -0.77613,-1.54019 -0.77613,-2.3103l2.31628,1.11367l1.88972,4.28294c0.85303,0.25473 0.85303,1.28552 1.62313,1.71197c0.60429,-1.19663 0.43244,-2.99746 1.29147,-4.11113l0.68117,0.7701c1.0308,-1.71199 1.97264,-3.51278 3.17525,-5.05896c-0.08884,1.2914 -0.43244,2.57095 -0.17186,3.6847c0.77011,-0.25473 1.19662,-1.11375 1.88383,-1.36845c-0.08299,1.11375 -0.51544,2.22735 -0.25473,3.51289l0.42645,0.51538c1.80086,-1.71199 3.34106,-3.77354 5.5744,-5.05309l0.08288,0.5095c-0.77011,1.37432 -1.45726,2.74268 -1.80086,4.28886c-0.68717,1.19663 -1.97257,2.22731 -2.22729,3.6017c1.4572,0.08288 2.83158,-0.77609 4.28886,-0.77609c-0.43256,1.1196 -1.63497,1.71197 -2.06155,2.74274c0.85903,0.51538 2.31628,0.51538 3.34106,0.17187c0.68723,-0.77016 1.20254,-1.97271 1.97264,-2.57102c0,0.94196 -0.51538,2.05558 0.43244,2.57102c0.77016,-0.42658 1.19664,-1.28554 1.9667,-1.8838l0.94788,0.25473c1.71199,-0.68723 3.34098,-1.8009 5.22476,-2.39915l0.26065,0.0888c-0.77011,1.19663 -2.06145,2.14441 -2.31629,3.42398c1.2026,-0.25473 2.57102,-0.7701 3.94534,-0.7701c-0.43244,0.9419 -1.7179,1.62906 -1.62906,2.57096c1.11375,0.26065 2.39915,0.17184 3.25811,-0.34358l-0.94783,-0.59829c0.08884,-1.54612 1.88971,-0.85896 2.8316,-1.45726c-0.17174,-0.77005 -1.20258,-0.85895 -1.54019,-1.45726c0.77016,-0.51532 1.96671,-0.0829 2.57099,-0.77007c-0.77606,-1.54619 0.59829,-2.83165 0.77005,-4.37185c0.77011,-1.28548 2.39915,-1.97264 3.25811,-3.16925c0.083,0.59838 -0.43243,1.27958 -0.51537,1.96671l0.25471,0.60422c1.7179,-1.11367 3.7735,-1.54612 5.65727,-2.48796l0.26065,0.17172l-1.0307,1.02482c-0.51544,0.43244 -1.11374,0.85896 -0.94196,1.45735c1.28552,0.0888 2.31025,-0.6813 3.51285,-1.11375l0.25471,0.60429c1.0308,0 2.2333,-0.42658 3.17526,0c-0.77016,0.85296 -2.14444,1.28541 -2.48813,2.48203c0.94787,0.68723 2.48813,0.51536 3.85649,0.51536c1.0308,0.34358 2.06148,1.03076 2.92051,1.71791c-0.51544,0.50946 -1.3744,0.42649 -2.06155,0.50943l-1.28548,-0.50943c0.1718,0.7701 -0.7701,0.68123 -0.94183,1.19663c0.77005,0.60429 2.05558,0.51538 3.08626,0.85902c0.59829,0.85889 1.88377,0.9419 2.39915,1.80077c0,1.36839 -1.54012,0.1718 -2.31031,0.68126l0.33759,0.94784c-0.94184,0.50946 -2.14438,0.34364 -3.16912,0.42651c-0.85903,0.51538 0.0829,1.54019 -0.08884,2.39923c0.43244,1.28542 1.97257,1.20248 3.00334,1.54605c0.94196,0.50946 1.0308,2.14441 2.14441,1.9667c1.02483,-1.02483 2.39922,-1.11361 3.424,-1.9667c0.17187,-0.51538 0.60423,-1.28546 0,-1.629c-1.11375,-0.59838 -2.05559,0.42645 -2.91447,0.8589l-0.16587,-0.0888c-0.26072,-1.62911 1.54012,-2.14443 2.6539,-2.74281l0.08288,-0.34358c-0.68117,-0.85896 -1.88374,-1.45719 -1.9667,-2.57095c0,-2.14441 -0.43244,-4.71538 1.62912,-6.00086c0.25473,0.59838 0.33761,1.45726 1.02477,1.71199c0.68723,-1.36836 1.45726,-2.74269 1.88972,-4.28295l1.71199,-0.8589c1.88383,0.0888 2.74273,1.97259 4.6265,2.06144l2.31622,2.05558c-0.9419,0.25473 -1.80089,-0.51538 -2.74273,-0.34352c0.51538,1.80078 -1.80085,-0.00001 -2.22731,1.36835l-0.68718,1.62904c1.629,-0.59826 3.60163,-0.51532 5.23069,-1.02481c1.19663,0.94196 2.6539,1.19668 4.02821,1.96671c-0.77005,0.17777 -1.80085,-0.08289 -2.5709,0.17777l-0.08885,1.02478c-1.28552,-0.1718 -2.31628,-0.85896 -3.59583,-0.9419c-0.43244,0.34358 -1.2026,0.26065 -1.2026,0.9419c2.65987,0.9419 5.74028,0.7701 8.1453,2.14443l-0.9477,0.51536c-0.42658,0.7701 0.77005,0.9419 0.8589,1.45726c-1.20248,0.59838 -2.74273,0 -3.51278,1.28554l0.34358,1.11361c0.59826,0.59838 1.45726,0.34364 2.14444,0.68126c-0.43244,0.68723 -1.88971,0.60422 -1.37439,1.54612c0.68723,1.11367 1.71198,0.34358 2.57095,0l1.54021,-0.7701c-1.36836,-2.05551 0.68723,-3.51279 1.20252,-5.31369c0.34358,0.85303 0.51544,1.88379 0.68718,2.7428c0.85896,-0.08892 1.20255,-1.0308 1.88383,-1.28554c0,1.62906 -0.9419,3.76764 0.94183,4.71538c1.03076,-1.03076 0.77015,-2.8316 0.94788,-4.28886c1.19655,-1.11367 2.13846,-2.488 3.424,-3.42986c-0.083,1.0307 -0.77016,1.97257 -0.42658,3.00331c1.54019,-0.68717 2.83159,-1.97264 4.45472,-2.22736l-0.08288,1.02483c1.11363,0.08892 2.39915,-0.1718 3.51279,0c-0.25473,0.7701 -0.94189,1.20252 -1.45721,1.8009l-1.20255,0.17174v0.17179c1.0307,1.11375 -1.11374,1.02483 -0.93603,1.97264" fill="#000000" fill-rule="nonzero" stroke="none" stroke-width="1"/><path d="M279.14538,133.16741l0.17185,-0.77011c1.45725,-1.0308 3.17511,-1.80097 4.37174,-3.51876c-0.77005,1.80078 -1.54018,3.94522 -3.51278,5.05883z" fill="#000000" fill-rule="nonzero" stroke="none" stroke-width="1"/><path d="M306.0634,156.90938c-1.37439,-1.80078 0.42645,-3.34106 1.28548,-4.79831c2.5709,-3.51871 4.79825,-7.20323 6.42731,-11.14264c0.26065,4.28289 -1.54019,7.96756 -2.82561,11.65209c-1.2026,1.71796 -2.31628,4.71552 -4.88717,4.28886" fill="#000000" fill-rule="nonzero" stroke="none" stroke-width="1"/><path d="M342.57925,122.62218c-1.19668,3.6847 -3.68467,7.11466 -6.94279,9.68556c1.62911,-3.25805 3.68468,-6.34432 5.14196,-9.68555c0.42645,-0.42645 1.45722,-0.59819 1.80086,0" fill="#000000" fill-rule="nonzero" stroke="none" stroke-width="1"/><path d="M336.32178,128.96606c-1.11375,1.5402 -2.57099,3.68464 -4.5437,4.02833c2.65987,-3.42995 3.42995,-7.71285 4.37185,-11.91296l1.0307,-0.59819c0.6813,0.16574 1.45732,0.33755 1.88383,1.02483c-0.17179,2.74267 -1.71199,5.05885 -2.7427,7.45801" fill="#000000" fill-rule="nonzero" stroke="none" stroke-width="1"/><path d="M329.46422,124.33655c-1.37439,1.54026 -3.08638,3.25823 -4.79845,4.28905c1.8009,-2.74877 2.91458,-5.91802 4.54357,-8.83262c0.59843,-1.28535 1.97271,-0.25471 2.82574,-0.17172l0.7701,0.85907c-1.02483,1.28535 -2.39912,2.48198 -3.34096,3.85624" fill="#000000" fill-rule="nonzero" stroke="none" stroke-width="1"/><path d="M348.23706,123.05113c-0.59837,5.05896 -5.65727,8.48295 -9.94026,10.11793c3.34106,-2.91452 3.93941,-6.94276 6.16672,-10.37266l1.54619,-0.77596c0.94184,-0.08299 1.80086,0.34352 2.22736,1.0307" fill="#000000" fill-rule="nonzero" stroke="none" stroke-width="1"/><path d="M333.92197,123.13703c0.08288,1.88383 -1.11369,3.25812 -1.88383,4.79837l-3.25812,2.74267c1.36839,-2.48209 2.91453,-5.14177 4.02829,-7.88462l0.94184,-0.68711l0.17185,1.0307" fill="#000000" fill-rule="nonzero" stroke="none" stroke-width="1"/><path d="M276.5749,126.04981c0.26072,-0.85303 1.03083,-1.62906 1.71799,-2.31031c-0.26072,1.02481 -0.3436,2.39915 -1.03076,3.16926z" fill="#000000" fill-rule="nonzero" stroke="none" stroke-width="1"/><path d="M320.8077,167.36567c0.68717,-3.16926 3.25816,-5.56841 4.97016,-8.31103c-0.34358,2.99735 -1.54018,5.82894 -2.65387,8.48283l-1.37428,0.68718z" fill="#000000" fill-rule="nonzero" stroke="none" stroke-width="1"/><path d="M352.60827,123.90831c-0.68723,3.42995 -3.85641,6.08385 -6.68808,7.88483l0.51542,-0.77016c1.20254,-2.05564 1.80084,-4.28288 2.99742,-6.42731c0.43244,-0.51536 0.859,-1.20255 1.54612,-1.28554c0.59829,0 1.28548,0 1.62912,0.59819" fill="#000000" fill-rule="nonzero" stroke="none" stroke-width="1"/><path d="M318.83573,116.62259c1.0307,0.17184 2.31618,0.17185 2.6539,1.28546c-0.93602,3.85642 -4.97018,7.03167 -8.2223,9.08719l-1.37439,0.51536c2.48796,-2.6598 4.11116,-5.74612 5.23082,-9.08716c0.42645,-0.59831 0.68117,-1.80084 1.71197,-1.80084" fill="#000000" fill-rule="nonzero" stroke="none" stroke-width="1"/><path d="M359.03739,128.88019c-1.11369,2.22742 -3.60169,3.6847 -5.91199,4.37185l-3.17525,0.94184c2.65979,-1.97245 4.97609,-4.79832 7.11453,-7.2862c0.85903,0.25471 1.62906,1.20254 1.9727,1.97251" fill="#000000" fill-rule="nonzero" stroke="none" stroke-width="1"/><path d="M356.20881,124.68021c-0.17185,1.5402 -1.6291,2.65393 -2.654,3.68463l-2.83153,1.8009l3.68468,-5.4026l0.85884,-0.68126l0.94203,0.59831" fill="#000000" fill-rule="nonzero" stroke="none" stroke-width="1"/><path d="M274.26241,123.39408c-0.17187,-0.59831 0.51532,-1.03076 0.9419,-1.37433c0,0.68717 0.0888,1.54612 -0.25472,2.14444l-0.68719,-0.7701" fill="#000000" fill-rule="nonzero" stroke="none" stroke-width="1"/><path d="M309.83499,113.10799c0.59829,-0.1718 1.11361,0.51536 1.28542,0.942c-0.59826,3.00332 -3.08625,5.31369 -5.14182,7.71866l-1.2026,0.68136c2.06151,-2.57106 2.91447,-5.65738 4.20002,-8.65472l0.85902,-0.68728" fill="#000000" fill-rule="nonzero" stroke="none" stroke-width="1"/><path d="M306.0634,111.82251c0.42645,-0.85896 1.28546,-0.17177 1.629,0.25481c-0.51538,2.06144 -2.22736,4.11699 -4.2,5.05891c1.03076,-1.71199 1.71204,-3.51283 2.57099,-5.31367" fill="#000000" fill-rule="nonzero" stroke="none" stroke-width="1"/><path d="M314.89224,114.73645c0.34358,0.26065 0.94184,0.26067 1.0307,0.85908c-0.34358,3.51272 -2.83155,6.1666 -4.88711,8.91537c-1.03087,0.9419 -1.88971,2.31019 -3.16931,2.65386c2.48202,-3.6847 4.02822,-7.88464 5.39661,-12.08471c0.25473,-0.68716 1.20254,-0.68716 1.62912,-0.34364" fill="#000000" fill-rule="nonzero" stroke="none" stroke-width="1"/><path d="M304.3471,110.53763c-0.08288,1.5402 -1.45726,2.48211 -2.5709,3.25818c0.51532,-1.28554 0.9419,-2.65979 1.80086,-3.77353z" fill="#000000" fill-rule="nonzero" stroke="none" stroke-width="1"/><path d="M320.80714,127.16585c-1.0308,1.0308 -2.22742,1.97268 -3.6017,2.57106c3.17519,-2.99753 4.11701,-7.02567 6.25557,-10.54445c0.34358,-0.42664 0.68716,-0.8531 1.29134,-0.94184c0.94196,0.17174 2.05558,0.17174 2.65394,1.03064c-1.28552,3.08625 -4.20002,5.3967 -6.59916,7.88459" fill="#000000" fill-rule="nonzero" stroke="none" stroke-width="1"/><path d="M317.37845,165.05292c-0.51544,-0.34352 -0.77016,-0.9419 -0.51544,-1.54012c2.14441,-2.83153 4.28289,-5.57438 6.00085,-8.57772c-0.59829,3.51876 -2.05558,6.60509 -3.6847,9.6026c-0.51532,0.43244 -1.11361,0.77591 -1.80073,0.51526" fill="#000000" fill-rule="nonzero" stroke="none" stroke-width="1"/><path d="M305.29132,159.56742c2.83171,-2.05558 6.25557,-2.5709 8.83256,-5.40254c-0.85903,2.488 -3.25818,4.5436 -4.88725,6.77095c-1.03076,0.60429 -2.57095,0.51539 -3.60163,-0.08294z" fill="#000000" fill-rule="nonzero" stroke="none" stroke-width="1"/><path d="M313.17778,162.99561c-0.59839,0 -1.19668,-0.34344 -1.37439,-0.94183c-0.16587,-0.85889 0.51538,-1.54605 1.0307,-2.14444c3.68468,-3.25805 6.34444,-7.3692 8.66071,-11.39736c-0.43244,3.76745 -1.97257,7.11443 -3.17511,10.53846c-0.85303,1.97264 -2.82572,4.11706 -5.1419,3.94515" fill="#000000" fill-rule="nonzero" stroke="none" stroke-width="1"/><path d="M300.83369,157.59308c-0.68716,-0.50946 -0.68717,-1.54019 -0.42656,-2.22736c0.77016,-1.71194 2.571,-3.08631 3.42996,-4.71537l2.73674,-4.45473c-0.68117,4.02821 -1.62307,7.88463 -3.76745,11.31453z" fill="#000000" fill-rule="nonzero" stroke="none" stroke-width="1"/><path d="M301.77915,108.99448c-0.17174,0.7701 -0.85895,1.62906 -1.37431,1.97264c0.26065,-0.77603 0.26064,-1.629 0.85902,-2.31622z" fill="#000000" fill-rule="nonzero" stroke="none" stroke-width="1"/><path d="M475.85259,301.86464h-471.70362v-107.263h471.70363z" fill="#000000" fill-rule="nonzero" stroke="none" stroke-width="1"/><path d="M339.97361,254.46396c-4.33619,9.3064 -14.49557,15.97072 -23.96194,18.22185l0.21332,19.81524c-6.10156,0.63977 -12.67704,0.63978 -18.61864,0.79959c1.76532,-30.97581 2.57096,-58.57495 -0.31988,-89.55077c15.24798,-3.68451 31.77549,0.32002 40.9219,14.12246c6.26143,10.11205 6.90128,25.83978 1.76524,36.59162" fill="#ffffff" fill-rule="nonzero" stroke="none" stroke-width="1"/><path d="" fill="#ffffff" fill-rule="nonzero" stroke="none" stroke-width="1"/><path d="M83.21808,271.20049v0" fill="#e3000b" fill-rule="nonzero" stroke="none" stroke-width="1"/><path d="" fill="#ffdd00" fill-rule="nonzero" stroke="none" stroke-width="1"/><path d="" fill="#ffdd00" fill-rule="nonzero" stroke="none" stroke-width="1"/><path d="" fill="#ffdd00" fill-rule="nonzero" stroke="#000000" stroke-width="2"/><path d="" fill="#e3000b" fill-rule="evenodd" stroke="none" stroke-width="1"/><path d="" fill="#ffdd00" fill-rule="nonzero" stroke="none" stroke-width="1"/><path d="" fill="#e3000b" fill-rule="nonzero" stroke="none" stroke-width="1"/><path d="" fill="#ffdd00" fill-rule="nonzero" stroke="none" stroke-width="1"/><path d="" fill="#ffdd00" fill-rule="nonzero" stroke="none" stroke-width="1"/><path d="" fill="#ffdd00" fill-rule="nonzero" stroke="none" stroke-width="1"/></g><g fill="#e3000b" fill-rule="nonzero" stroke="none" stroke-width="1"><path d="M132.03725,181.16935c0.68716,3.77368 0.00001,7.97355 1.71195,11.3146l0.85896,2.05562c-1.11367,0.34354 -2.48802,0.26072 -3.68457,0.0888c-1.45732,-2.22723 -2.99746,-4.63239 -4.79831,-6.85977v-1.45725l-0.17783,-1.45732c0.94787,0.17174 1.8009,1.20258 2.91458,0.51544c1.45726,-1.28554 1.80084,-3.08631 2.83159,-4.46057z"/><path d="M120.46521,188.4557c0.9419,2.14447 2.65987,3.94527 3.85642,5.91199v0.26071c-2.48209,0.25473 -5.2307,0.17174 -7.80169,0v-0.42656l0.43244,-2.91446c0.85903,-1.0308 1.71197,-2.40506 2.99746,-3.00344z"/><path d="M175.49657,194.45596l-0.42652,0.17191h-5.14189l-0.34358,-0.51544l-0.60422,-3.85641l0.17174,-0.17174c2.57095,0.42645 4.6265,2.39915 6.34449,4.37167"/></g><path d="M27.03294,260.44103v-0.00143h0.00362l-0.00071,0.00213h-0.00289z" fill="#ffffff" fill-rule="nonzero" stroke="none" stroke-width="1"/><path d="M25.65129,229.32284v-0.00427h0.00579z" fill="#ffffff" fill-rule="nonzero" stroke="none" stroke-width="1"/><path d="M27.04089,260.43396c-0.00071,0.00284 -0.00145,0.00284 -0.00363,0.00567h0.03474c-0.0123,0.00995 -0.0275,0.01421 -0.03836,0.02345v-0.02059h-0.00652c0.00434,-0.00284 0.0087,-0.00568 0.01376,-0.00852z" fill="#ffffff" fill-rule="nonzero" stroke="none" stroke-width="1"/><path d="M50.09487,213.94666c0.0275,-0.00995 0.03763,-0.03764 0.05645,-0.05541c0.00072,0.00427 0.00072,0.00995 0.00072,0.01422z" fill="#ffffff" fill-rule="nonzero" stroke="none" stroke-width="1"/><path d="M59.94688,277.36654c0.00218,-0.00427 0.00652,-0.00709 0.00723,-0.00993c0.00072,0.00284 0.00072,0.00569 0.0029,0.00711c-0.00218,0 -0.00652,0.00282 -0.01014,0.00282z" fill="#ffffff" fill-rule="nonzero" stroke="none" stroke-width="1"/><path d="M87.49093,281.90726c0.00362,-0.00427 0.00798,-0.00426 0.01303,-0.00854c0,0.00427 0.00071,0.00851 0.00071,0.01277c-0.0058,-0.00142 -0.00942,-0.00425 -0.01376,-0.00425z" fill="#ffffff" fill-rule="nonzero" stroke="none" stroke-width="1"/><path d="M218.68,234.22591v-0.00214h0.00363v0.00214z" fill="#ffffff" fill-rule="nonzero" stroke="none" stroke-width="1"/><path d="M208.46809,267.88864v-0.00141c-0.02824,0.02132 -0.06007,0.03623 -0.09625,0.03623c0,0 0.00145,-0.00001 0.00217,0.00142c0.03401,-0.00569 0.06369,-0.02202 0.09408,-0.03623z" fill="#ffffff" fill-rule="nonzero" stroke="none" stroke-width="1"/><path d="M222.60408,269.04158v-0.00213h0.00145v0.00213z" fill="#ffffff" fill-rule="nonzero" stroke="none" stroke-width="1"/><path d="M218.68362,234.23867c-0.00505,-0.00711 -0.01013,-0.01279 -0.01447,-0.01776c0.00434,0 0.00651,0.00284 0.0123,0.00284c-0.00072,-0.00141 -0.00072,-0.00428 -0.00072,-0.00569c0.00218,0 0.00288,0.00285 0.00505,0.00427c0,0 -0.00072,0.00142 -0.00218,0.00142v0.01493z" fill="#ffffff" fill-rule="nonzero" stroke="none" stroke-width="1"/><path d="M190.05849,280.22863l0.00288,-0.00854l0.0058,0.00568z" fill="#ffffff" fill-rule="nonzero" stroke="none" stroke-width="1"/><path d="M187.50732,255.51954v0c0.0029,0 0.00652,0.00142 0.01014,0.00142c-0.00362,0.00284 -0.00796,0.00711 -0.01302,0.01138v-0.00854h0.00288v-0.00427z" fill="#ffffff" fill-rule="nonzero" stroke="none" stroke-width="1"/><path d="M332.47977,220.41424c4.90888,9.57338 5.55126,23.56654 0.16937,32.98758c-4.90888,8.90877 -13.74457,13.39674 -23.3905,13.72085c-0.4745,6.51965 -0.4745,14.027 -0.64385,19.89798c-0.6088,0.64769 -1.89552,0.47743 -2.5053,0.18768l0.94899,-55.00087l-0.94899,-23.42962c2.81043,-1.45268 6.94017,-0.32459 10.25719,-0.17125c6.63404,1.27844 12.35613,6.04071 16.11308,11.80765" fill="#e3000b" fill-rule="nonzero" stroke="none" stroke-width="1"/><path d="M329.97441,222.3085c4.57017,9.07853 4.73952,22.6291 -0.4735,31.40047c-4.56917,7.03193 -11.71228,11.16146 -19.76883,11.16146c-0.4735,-17.68012 -0.64287,-36.17871 -0.64287,-54.33625c2.06487,-0.80301 4.43438,-0.17124 6.49927,0.13693c5.65296,1.74093 11.67773,5.90331 14.38595,11.63739" fill="#ffffff" fill-rule="nonzero" stroke="none" stroke-width="1"/><path d="M327.09691,230.29627c2.40407,8.6011 0.81271,18.32682 -6.63404,23.89013c-1.25315,0.97229 -2.5043,1.91269 -4.09617,2.08294c-0.94751,-12.11732 -0.94751,-25.80279 0,-38.09137c5.21302,1.74241 9.34227,7.0145 10.73022,12.1183" fill="#000000" fill-rule="nonzero" stroke="none" stroke-width="1"/><path d="M409.76622,213.89832c7.42655,6.79073 15.90215,14.81199 13.40413,25.96829c-1.24949,5.35962 -4.59216,9.92627 -8.98043,13.70092c1.85626,9.58853 5.67176,18.11615 8.98043,27.0641l-11.04158,3.64093c-3.78249,-6.45445 -6.48241,-13.71813 -10.09595,-20.15538c-1.89075,0.1519 -3.30818,1.73493 -2.66744,3.77464l0.43884,14.77955c-3.94993,0.8092 -8.50861,0.16812 -12.59398,0.64057l-0.30435,0.47244c-5.36737,0.16911 -10.7372,0.48869 -15.93564,0.16912l-1.11554,-15.60595l-2.0257,-0.91048h-12.45901l-0.77668,0.74234l-2.05969,15.13253l-13.91044,0.32052l-0.27138,-0.64156c4.55917,-23.12033 10.06196,-45.95603 13.20221,-69.86739c6.48388,-0.18533 14.55314,-0.48966 21.47536,-0.18534c2.83589,20.01921 6.14554,40.3088 11.81679,59.35265l0.4733,-0.92669c0.47328,-19.83484 0.77618,-38.74399 0.47328,-58.42595c6.78679,-0.60763 14.0114,-0.30431 20.96761,-0.13521z" fill="#ffffff" fill-rule="nonzero" stroke="none" stroke-width="1"/><path d="M412.1113,223.35117c4.09353,4.88817 5.84049,11.49455 4.26142,17.9308c-1.40874,4.71953 -4.09352,9.30242 -8.28887,12.43746c2.14833,8.19038 5.16939,16.51544 7.68582,24.87296l-0.80568,0.47247l-1.10722,-1.07713c-2.81844,-7.449 -5.47043,-14.98208 -8.62416,-22.36376c-3.75971,1.73493 -7.81996,2.96593 -11.8802,3.77465c-1.27412,6.30255 0,11.77968 -0.33579,18.7238c-0.46892,0.77478 -1.71073,0.94294 -2.5174,0.62337c0,-21.08208 0.80618,-41.06935 0,-61.86433c8.19,-2.19213 16.008,0.47147 21.61206,6.46971" fill="#e3000b" fill-rule="nonzero" stroke="none" stroke-width="1"/><path d="M410.23218,225.39089c4.26141,5.04007 4.73182,12.45269 2.55068,18.41948c-3.15423,7.53356 -11.30947,13.21129 -18.99333,13.21129l-0.605,-0.43705c0.16789,-12.30276 -0.50318,-26.15362 0.605,-38.27154c6.61094,-0.48867 12.24731,2.20787 16.44264,7.07785" fill="#ffffff" fill-rule="nonzero" stroke="none" stroke-width="1"/><path d="M367.1779,218.63311c5.47044,19.98726 9.22869,40.74879 12.04761,61.37564h-1.88009l-2.81844,-18.25134l-0.4704,-0.64059l-24.1275,0.15191c-1.71124,5.52875 -2.1816,11.49454 -3.62459,17.02131c0,1.07909 -1.37545,1.0791 -2.18113,0.77479l-0.46944,-0.94292l12.04663,-55.71319c0.33579,-1.7369 0.5032,-5.05531 3.62412,-3.77563c2.65249,-0.33726 5.33584,-0.33726 7.85323,0" fill="#e3000b" fill-rule="nonzero" stroke="none" stroke-width="1"/><path d="M365.6003,220.67135c3.75774,12.13513 6.10726,25.02635 7.65158,37.76617c-8.62417,0.16911 -14.39713,0.63958 -22.5509,0c2.04702,-12.73981 4.56394,-25.34541 7.9859,-37.44563c2.34952,-0.95964 4.26241,0.13568 6.91342,-0.32053" fill="#ffffff" fill-rule="nonzero" stroke="none" stroke-width="1"/><path d="M407.58064,233.90082c0.63827,6.30255 -3.11995,12.57168 -8.59039,15.10007c-1.4425,0 -0.30104,-1.88782 -0.93931,-2.52839c0.13461,-6.74059 -0.33578,-14.79673 0.47041,-21.70496c4.36177,0.92669 7.81848,5.02189 9.05931,9.13329" fill="#000000" fill-rule="nonzero" stroke="none" stroke-width="1"/><path d="M367.47892,254.03997c-3.28736,0.63958 -6.91196,0.31955 -10.20078,0.15093c1.10771,-8.17316 1.87913,-16.9869 5.00005,-24.55292c3.15423,7.56602 4.39602,16.0602 5.20073,24.402" fill="#000000" fill-rule="nonzero" stroke="none" stroke-width="1"/><path d="M440.44223,212.8124c0.64024,7.25374 -0.33808,15.92427 0.80902,22.68885c5.3655,-6.59629 7.55835,-15.11525 10.22216,-23.14455c4.72429,1.73765 9.61637,4.25038 14.17186,6.93387l-14.00305,24.56133l0.47292,2.3779c5.19721,10.22266 10.86389,20.17562 16.36225,30.24572l-12.27969,7.08544l-1.24751,-1.58509c-3.77942,-8.33343 -7.08544,-17.00396 -11.8427,-24.88318c-1.2475,0 -1.85576,1.435 -2.02455,2.37888l0.30412,23.14455c-4.72429,0.64123 -9.61538,0.16928 -14.33818,0c0.80952,-22.5363 0.30315,-47.89041 -1.08117,-70.44492z" fill="#ffffff" fill-rule="nonzero" stroke="none" stroke-width="1"/><path d="M434.60479,218.49728c0,12.60056 -0.13533,24.27395 0.94535,36.25098c8.97368,-10.89685 14.97942,-23.00921 20.34295,-35.28988c0.77705,-0.18553 1.41875,0.30461 1.8902,0.91139c-3.00239,8.19761 -7.38905,16.07633 -11.97703,23.65043c4.58797,10.54301 10.39096,20.64856 15.72151,31.03951c0.47193,1.24653 -1.0797,1.58509 -1.7214,2.05802c-5.49838,-9.76646 -9.58094,-20.49649 -15.28256,-30.26394c-3.61064,3.77844 -6.61301,8.0293 -9.27829,12.44897v17.94981c-1.11415,0.64219 -3.17167,-0.00001 -2.36165,-1.71945c0.16879,-19.68746 0.16881,-39.08652 -0.64171,-58.13176c0.30511,-0.96258 3.47678,-0.96258 2.36262,1.09592" fill="#e3000b" fill-rule="nonzero" stroke="none" stroke-width="1"/><path d="M26.60343,260.65671v-0.00149h0.00376l-0.00074,0.00221h-0.00302z" fill="#ffffff" fill-rule="nonzero" stroke="none" stroke-width="1"/><path d="M25.16412,228.23706v-0.00445h0.00603z" fill="#ffffff" fill-rule="nonzero" stroke="none" stroke-width="1"/><path d="M26.61169,260.64932c-0.00074,0.00296 -0.00151,0.00296 -0.00377,0.00591h0.0362c-0.01281,0.01037 -0.02866,0.01481 -0.03996,0.02443v-0.02145h-0.00679c0.00452,-0.00296 0.00907,-0.00592 0.01433,-0.00888z" fill="#ffffff" fill-rule="nonzero" stroke="none" stroke-width="1"/><path d="M46.12977,206.57168c-1.43892,24.39804 -1.43892,48.31232 -2.23445,73.6632c-0.64342,4.01076 -1.8789,8.074 -5.35723,10.82368c-7.12701,5.49834 -17.56145,2.86923 -25.93234,2.10955l-0.64394,-0.65829c-0.63402,-5.66984 -0.63402,-11.96468 -0.77821,-17.30768c4.10496,0.83029 8.86123,1.78015 12.8131,0.19016c1.98463,-1.93088 2.58596,-4.38766 2.76374,-6.98702c0.06108,-0.89309 0.07214,-1.80304 0.07214,-2.71428c0.17597,-8.53352 0.02953,-17.64084 -0.38449,-26.57171c-0.2831,-6.10653 -0.69127,-12.13055 -1.20702,-17.83222c0.17777,-0.81163 -0.10172,-0.53622 -0.43157,-1.85027l-0.03407,-2.21397l-0.32986,-14.17817z" fill="#ffffff" fill-rule="nonzero" stroke="none" stroke-width="1"/><path d="M36.15946,209.65023l0.62614,3.07806l0.16936,60.72748c-0.34664,4.67005 -3.01267,9.37242 -7.43068,10.96341c-3.47041,0.96648 -6.66086,1.6248 -10.59595,0.9665c-0.62713,-0.48275 -0.79602,-1.43461 -0.33037,-2.07374c5.39082,-0.48375 12.18747,0.44945 14.86977,-5.67087c1.75249,-5.0156 1.59939,-10.82466 1.59939,-16.63476l-1.59939,-51.35608c0.62662,-0.65679 1.75248,-0.48425 2.69169,0" fill="#e3000b" fill-rule="nonzero" stroke="none" stroke-width="1"/><path d="M60.46083,277.7958c0.00218,-0.00432 0.00651,-0.00718 0.00722,-0.01007c0.00072,0.00288 0.00072,0.00577 0.0029,0.0072c-0.00218,0 -0.00651,0.00286 -0.01013,0.00286z" fill="#ffffff" fill-rule="nonzero" stroke="none" stroke-width="1"/><path d="M87.975,282.39725c0.00362,-0.00432 0.00797,-0.00431 0.01302,-0.00865c0,0.00432 0.00071,0.00863 0.00071,0.01294c-0.00579,-0.00144 -0.00941,-0.0043 -0.01375,-0.0043z" fill="#ffffff" fill-rule="nonzero" stroke="none" stroke-width="1"/><path d="M219.02222,234.0782v-0.00217h0.00363v0.00217z" fill="#ffffff" fill-rule="nonzero" stroke="none" stroke-width="1"/><path d="M208.82139,268.19113v-0.00143c-0.02821,0.0216 -0.06001,0.03671 -0.09614,0.03671c0,0 0.00145,-0.00001 0.00217,0.00144c0.03397,-0.00577 0.06362,-0.02231 0.09397,-0.03671z" fill="#ffffff" fill-rule="nonzero" stroke="none" stroke-width="1"/><path d="M222.94208,269.35949v-0.00216h0.00145v0.00216z" fill="#ffffff" fill-rule="nonzero" stroke="none" stroke-width="1"/><path d="M219.02585,234.09113c-0.00504,-0.0072 -0.01012,-0.01296 -0.01446,-0.018c0.00434,0 0.0065,0.00288 0.01229,0.00288c-0.00072,-0.00143 -0.00072,-0.00433 -0.00072,-0.00577c0.00218,0 0.00288,0.00289 0.00504,0.00432c0,0 -0.00072,0.00144 -0.00218,0.00144v0.01513z" fill="#ffffff" fill-rule="nonzero" stroke="none" stroke-width="1"/><path d="M190.43167,280.6962l0.00288,-0.00865l0.00579,0.00576z" fill="#ffffff" fill-rule="nonzero" stroke="none" stroke-width="1"/><path d="M187.88327,255.65663v0c0.0029,0 0.00651,0.00144 0.01013,0.00144c-0.00362,0.00288 -0.00795,0.0072 -0.01301,0.01153v-0.00865h0.00288z" fill="#ffffff" fill-rule="nonzero" stroke="none" stroke-width="1"/><path d="M60.47115,277.60961c0.00218,-0.00432 0.00652,-0.00717 0.00723,-0.01006c0.00072,0.00287 0.00072,0.00577 0.0029,0.0072c-0.00218,0 -0.00652,0.00285 -0.01014,0.00285z" fill="#ffffff" fill-rule="nonzero" stroke="none" stroke-width="1"/><path d="M88.01514,282.20471c0.00362,-0.00432 0.00798,-0.00431 0.01303,-0.00864c0,0.00432 0.00071,0.00862 0.00071,0.01293c-0.0058,-0.00144 -0.00942,-0.0043 -0.01376,-0.0043z" fill="#ffffff" fill-rule="nonzero" stroke="none" stroke-width="1"/><path d="M66.57492,213.89794c1.60917,16.62175 0.32819,35.12625 -0.15602,51.59426c3.39253,2.37314 8.10037,2.55948 12.28865,2.37313l0.77908,-1.10179c1.6445,-17.40172 0.34638,-36.0748 0.50139,-53.01832c4.673,-0.62675 10.3503,-0.49133 15.52517,-0.16905c-1.78235,22.50191 -2.57861,45.44374 -1.62683,68.99601l-0.31204,0.66038l-13.27475,2.05035c-0.31154,-1.08497 0,-3.01718 -0.95227,-4.13381c-3.39253,0.81311 -5.83228,4.77788 -9.53634,3.65879c-5.33091,-2.37212 -10.8441,-4.74525 -15.51659,-9.015l-1.31532,-3.01423c-0.13783,-18.99485 0.67558,-40.36035 -2.11105,-59.20248l0.35446,-0.32228h14.71176z" fill="#ffffff" fill-rule="nonzero" stroke="none" stroke-width="1"/><path d="M61.16655,218.33774l0.78979,51.42422c3.53959,3.33849 7.71365,5.08386 12.21394,6.03092c4.15751,-1.8971 8.00532,-5.08188 11.7158,-8.40305c0.61792,-15.82542 -0.48009,-33.68439 0.13782,-49.84989c0.4801,-0.30398 1.11706,-0.17003 1.752,-0.17003l0.34379,2.88077l0.3087,56.96676c-0.3087,0.77803 -1.09903,0.77802 -1.75251,0.94807c-1.26991,-2.20308 -0.17189,-5.55689 -0.9617,-7.9127l-12.19742,7.9127c-5.11871,-0.47404 -10.272,-3.32019 -13.45878,-7.58993c-1.45985,-16.01276 -0.52371,-36.26017 -1.45985,-52.56062c0,-0.94856 2.72273,-1.25254 2.56838,0.3228" fill="#e3000b" fill-rule="nonzero" stroke="none" stroke-width="1"/><path d="M220.25272,233.70164v-0.00214h0.00363v0.00214z" fill="#ffffff" fill-rule="nonzero" stroke="none" stroke-width="1"/><path d="M210.04082,267.36436v-0.00141c-0.02824,0.02132 -0.06007,0.03623 -0.09625,0.03623c0,0 0.00145,-0.00001 0.00217,0.00142c0.03401,-0.00569 0.06369,-0.02202 0.09408,-0.03623z" fill="#ffffff" fill-rule="nonzero" stroke="none" stroke-width="1"/><path d="M220.25634,233.7144c-0.00505,-0.00711 -0.01013,-0.01279 -0.01447,-0.01776c0.00434,0 0.00651,0.00284 0.0123,0.00284c-0.00072,-0.00141 -0.00072,-0.00428 -0.00072,-0.00569c0.00218,0 0.00288,0.00285 0.00505,0.00427c0,0 -0.00072,0.00142 -0.00218,0.00142v0.01493z" fill="#ffffff" fill-rule="nonzero" stroke="none" stroke-width="1"/><path d="M191.13841,256.25345v0c0.00294,0 0.0066,0.00146 0.01025,0.00146c-0.00366,0.00293 -0.00805,0.00732 -0.01317,0.0117v-0.00879h0.00291v-0.00439z" fill="#ffffff" fill-rule="nonzero" stroke="none" stroke-width="1"/><path d="M120.89409,228.52506l3.99395,6.20441l2.02882,6.96609l-14.51787,10.82706l-0.6975,-28.49301z" fill="#000000" fill-rule="evenodd" stroke="none" stroke-width="1"/><path d="M123.23172,238.66425c0.02635,-0.02558 0.05782,-0.03289 0.08416,-0.05409c0.01684,-0.78797 -0.05343,-1.56939 -0.1837,-2.34712c-0.3008,-0.53434 -0.30299,-1.16223 -0.53429,-1.71777v-0.00147c-0.63383,-1.14835 -1.23032,-2.31717 -2.07053,-3.33539v-0.00146c-0.05709,-0.05701 -0.112,-0.11404 -0.16541,-0.17104c-0.02269,-0.05482 -0.03367,-0.11036 -0.03367,-0.16739v-0.00147c-0.14198,-0.08625 -0.26495,-0.19296 -0.33887,-0.3472c-0.26275,-0.16813 -0.47133,-0.37644 -0.54893,-0.69075c0.00073,0 0.00073,-0.00146 0.00073,-0.00146c-0.57014,-0.52191 -1.13956,-1.04602 -1.70898,-1.57158c-0.15443,-0.07602 -0.28104,-0.18127 -0.35936,-0.33696l-0.00147,-0.00147c-0.74946,-0.52702 -1.49966,-1.05479 -2.24912,-1.58181c-0.38278,-0.12573 -0.70703,-0.41155 -1.11688,-0.46417c-0.00439,0.09283 -0.01024,0.18858 -0.01024,0.2829c-0.00366,1.14616 0.03074,2.29302 -0.01536,3.43773c-0.01318,0.32674 0.10101,0.78797 -0.4179,0.87936c0.00586,0.01828 0.00732,0.03875 0.01536,0.05849c0.35057,0.42542 0.26128,0.93928 0.24371,1.4188c-0.16981,4.7498 -0.17492,9.50253 -0.17783,14.25527c-0.00073,1.12788 0.36374,2.24261 0.10027,3.37487c-0.02342,0.06287 -0.06734,0.11329 -0.10539,0.1674c0.32057,0.83842 0.3762,0.81942 1.31156,0.2858c0.12076,-0.06725 0.24957,-0.12719 0.37472,-0.19004c0.71214,-0.57672 1.42354,-1.15786 2.22351,-1.61326c0.03366,-0.1323 0.1193,-0.22659 0.23347,-0.29529c0.09882,-0.19883 0.28983,-0.28143 0.4728,-0.37132c0.07466,-0.15424 0.1698,-0.28654 0.34692,-0.33111c0.00366,-0.00366 0.00657,-0.00951 0.0095,-0.01535c0.01975,0.00293 0.04025,0.00294 0.06075,0.00439c-0.1471,-0.58112 0.32643,-0.72586 0.72093,-0.92687c0.04025,0.01462 0.07757,0.02119 0.11563,0.02996c0.05342,-0.04824 0.10613,-0.09575 0.15956,-0.144c0.10465,-0.22441 0.22103,-0.44004 0.46182,-0.55114c0.16394,-0.38668 0.46329,-0.67394 0.73994,-0.97949c-0.00805,-0.00879 -0.01829,-0.01243 -0.02561,-0.02413c-0.02415,-0.47585 0.27372,-0.75655 0.61334,-1.01385c0.03658,0.01534 0.06587,0.01388 0.09879,0.02119c0.0871,-0.21562 0.18444,-0.42687 0.35203,-0.59648c0.01244,-0.13888 0.06515,-0.26021 0.18811,-0.33843c0.05417,-0.09941 0.10832,-0.19809 0.16174,-0.29676c-0.01903,-0.04314 -0.04464,-0.08406 -0.05928,-0.12866c0.01684,-0.46709 0.18077,-0.8713 0.51232,-1.20242c0.01611,-0.00951 0.03147,-0.01535 0.04684,-0.02413c-0.20494,-0.36402 -0.03805,-0.67249 0.20274,-0.9678c0.07027,-0.01241 0.11344,-0.02997 0.15663,-0.04825c0.00952,-0.08846 0.01756,-0.17689 0.02562,-0.26242c-0.03074,-0.02997 -0.05928,-0.05848 -0.10686,-0.09283c-0.1398,-0.37572 -0.03515,-0.70392 0.19614,-1.00946zM113.50781,249.83488c0.00073,-0.00293 0.00148,-0.00586 0.00294,-0.00732c-0.0022,0 -0.00294,-0.00145 -0.00366,-0.00145c0,0.00293 0.00002,0.00584 0.00073,0.00877zM130.19132,245.39573c-2.39914,4.714 -5.7827,7.43831 -9.28555,9.57418c-2.0193,1.23167 -5.44968,2.5825 -7.34748,3.06494c-1.8978,0.48244 -3.22912,0.96779 -4.31965,0.96779c-1.09053,0 -1.5743,0.00001 -1.61457,-0.44369c-0.04025,-0.44297 0.40328,-25.15982 0.48377,-28.06102c0.08123,-2.90339 0.13175,-11.09238 0.16176,-11.41107c0.03879,-0.41958 0.16175,-0.56358 0.64552,-0.48245c0.48524,0.08113 7.46752,0.42981 9.4978,1.3289c2.45184,1.08914 6.32795,3.83025 8.44752,6.0787c2.18763,2.32007 3.57165,6.13718 4.05689,8.31471c0.48451,2.17754 1.19006,7.29868 -0.72605,11.06899z" fill="#ffffff" fill-rule="nonzero" stroke="none" stroke-width="1"/><path d="M157.72886,226.94179l3.1691,-0.12719l6.21379,31.02653l-15.84992,-0.12574z" fill="#000000" fill-rule="evenodd" stroke="none" stroke-width="1"/><path d="M164.28734,255.2396c0.00293,-0.40861 0.00732,-0.81648 0.01098,-1.22583c-0.12662,-0.9868 -0.25104,-1.97141 -0.3762,-2.95821c-0.25324,-0.67175 -0.33008,-1.37421 -0.35643,-2.08838c-0.01536,-0.05555 -0.01829,-0.1111 -0.01245,-0.16958c-0.26349,-0.31578 -0.1215,-0.6966 -0.17417,-1.04674h0.00072c-0.03805,-0.05995 -0.07686,-0.12282 -0.11418,-0.18275c-0.00512,-0.05849 -0.01024,-0.11696 -0.01536,-0.17543c-0.01024,-0.11257 -0.02049,-0.22878 -0.03074,-0.34137c-0.08564,-0.33551 -0.19542,-0.66736 -0.1859,-1.01968c-0.18518,-0.21272 -0.15516,-0.47073 -0.15224,-0.72366v0c-0.30154,-0.82964 -0.29274,-1.72069 -0.51232,-2.56715c-0.09222,-0.35525 -0.12589,-0.7251 -0.18735,-1.08767c-0.0183,-0.04679 -0.0256,-0.09429 -0.01975,-0.14545c-0.19688,-0.20686 -0.1515,-0.46928 -0.16175,-0.71781v-0.00146c-0.2291,-0.49926 -0.24446,-1.04309 -0.33374,-1.57304c-0.17857,-0.62643 -0.3279,-1.2558 -0.37327,-1.90855c-0.28105,-0.78288 -0.41206,-1.5979 -0.53281,-2.41584v-0.00145c-0.17783,-0.1513 -0.14783,-0.35307 -0.1332,-0.55116c-0.21591,-0.43127 -0.31619,-0.89836 -0.37546,-1.37348c-0.11345,-0.10014 -0.14639,-0.22441 -0.12296,-0.36987c-0.07245,-0.28436 -0.14638,-0.56941 -0.21883,-0.85377c-0.20785,-0.18712 -0.1559,-0.4459 -0.18444,-0.6798c0.00219,-0.00439 0.00366,-0.00439 0.00439,-0.00732h-0.00073c-0.05635,-0.0117 -0.11272,-0.02265 -0.16981,-0.03434c-0.00584,0.03144 -0.02269,0.04899 -0.03586,0.07017v0.00145c-0.00366,0.0943 -0.02269,0.18421 -0.0527,0.2712c-1.11247,2.74843 -1.77044,5.62478 -2.44379,8.49747c-1.02392,4.36385 -1.97831,8.74453 -2.67361,13.17709c-0.02122,0.14327 -0.07687,0.27704 -0.1376,0.40716c-0.26056,0.49268 -0.13906,1.02263 -0.1493,1.53503c-0.00732,0.30408 0.15809,0.51534 0.46548,0.51827c0.32935,0.00293 0.65066,0.06724 0.97342,0.12133c0.82925,0.01316 1.6592,0.03436 2.48991,0.0614c1.76241,0.00879 3.52773,0.05042 5.29087,-0.05555c0.15297,-0.02119 0.30592,-0.0402 0.4589,-0.05554c0.18004,-0.10965 0.36083,-0.22003 0.54234,-0.32966zM167.61459,238.80316c1.27057,7.07647 3.33012,20.6227 3.45235,21.10588c0.1215,0.48537 0.24079,0.66663 -0.48525,0.78797c-0.72604,0.12134 -9.68881,0.18128 -13.68643,0.12134c-3.99615,-0.05995 -9.08283,0.05994 -9.62735,-0.12134c-0.54452,-0.18202 -0.84898,-0.42468 -0.36375,-2.17754c0.48525,-1.75286 5.32819,-24.12988 5.81344,-26.4887c0.48451,-2.35882 2.17958,-10.22255 2.54334,-11.31022c0.36302,-1.08914 0.72678,-0.83914 1.09052,-0.89909c0.48084,-0.07967 1.02904,-0.30263 3.45088,-0.24269c2.42258,0.05995 3.63312,-0.00732 3.75463,0.41664c0.1215,0.42397 2.78485,11.73199 4.05762,18.80773z" fill="#ffffff" fill-rule="nonzero" stroke="none" stroke-width="1"/><path d="M206.06166,220.81154c-4.83095,3.66294 -10.7606,8.60719 -10.7606,15.11713c1.28873,10.34542 16.38135,16.54861 9.95227,28.49803c-3.19673,7.31148 -8.49154,14.02675 -13.81995,20.53622c-3.67864,-0.32219 -6.23952,-3.66392 -9.45432,-4.94175c-0.49794,1.60252 -0.15494,3.81858 0.3094,5.57322c-4.96736,0.64885 -9.31643,0.49422 -14.76567,0.15363l-1.59862,-15.91963c-4.34857,-1.73824 -9.7978,-1.26042 -14.61071,-1.08938l-0.97983,1.5672l-2.08002,14.18039l-13.95734,0.15463l-0.32595,-1.43247c-2.73289,0.15364 -5.1228,1.75466 -7.8562,2.24888c-3.71223,-6.05004 -5.79225,-13.24216 -9.48843,-19.44634c-0.96229,0.49522 -2.40596,0.49521 -2.73289,1.77204v17.02741l-13.32099,0.15265l0.3094,-71.17346l21.36575,0.17004c8.02719,4.46493 15.72796,13.3799 16.36429,23.07744c0.32595,7.15781 -4.48647,13.22677 -9.29938,17.98106c0.82488,6.54427 2.56089,13.24318 5.94668,18.95311l1.27269,-1.58561c4.81291,-19.2589 9.00703,-38.68931 11.87782,-58.90383l0.97983,-0.47684l20.21441,0.17104c2.88784,20.04298 6.27413,39.95073 10.60565,59.36326l0.63634,0.63146c4.95032,-2.86392 9.14443,-7.63664 9.31643,-13.36248c-0.48139,-8.28252 -7.70077,-13.8393 -10.7601,-20.99713c-3.5242,-11.14643 5.79225,-19.42992 12.99456,-27.2366c4.847,2.53775 9.17902,6.03065 13.66549,9.23665" fill="#ffffff" fill-rule="nonzero" stroke="none" stroke-width="1"/><path d="M127.86812,224.9523c3.85012,5.09737 5.62075,11.62525 4.00458,18.13669c-1.42712,4.92337 -4.48597,9.40718 -8.81798,12.42326l7.21885,23.69101c-0.1374,0.34108 -0.48139,0.51163 -0.96227,0.51163c-3.71322,-7.15881 -5.7757,-14.96499 -8.66354,-22.46489c-3.85012,1.43244 -8.04423,3.20551 -12.51366,3.81757c-0.8254,6.3752 0,13.70357 -0.8254,19.56715h-1.92456l0.65289,-63.01078c7.70175,-1.10778 16.36479,0.78411 21.83108,7.32835" fill="#e3000b" fill-rule="nonzero" stroke="none" stroke-width="1"/><path d="M164.96186,220.02745c4.33203,19.88936 8.66355,40.90438 11.07,61.73245c-0.96229,0.34108 -1.27217,0.17104 -2.25152,0.17104l-3.04229,-19.12412c-7.52876,-1.26143 -16.86273,-0.74981 -24.58104,-0.28938c-2.06244,5.72586 -2.06245,12.40784 -4.46891,18.1337l-1.61567,-0.28936l0.3094,-3.5118l13.02915,-58.11824c3.67812,-0.47781 7.51121,-0.78558 10.58811,-0.47781z" fill="#e3000b" fill-rule="nonzero" stroke="none" stroke-width="1"/><path d="M195.78244,219.68687c-0.80784,2.55517 -3.38629,4.63499 -4.65846,7.02108c-8.50858,12.56149 7.39137,20.67492 7.56337,32.2972c-0.48089,7.32985 -4.83046,13.37988 -9.79731,18.49368c-0.6539,0 -1.1353,-0.35749 -1.61667,-0.97205c5.1228,-6.35781 10.26217,-13.20787 8.50911,-21.96867c-3.69618,-8.14775 -12.18773,-15.13654 -8.66303,-25.31092c1.59862,-3.66293 3.52317,-7.17573 6.58352,-10.36184c0.96177,-0.15313 1.44318,0.32468 2.0795,0.80152" fill="#e3000b" fill-rule="nonzero" stroke="none" stroke-width="1"/><path d="M128.21212,230.69607c2.37184,5.86459 1.58057,13.83931 -2.26956,18.78306c-4.81293,5.21373 -10.5881,8.89556 -17.67006,8.89556c-0.3094,-13.19047 -0.13739,-26.41721 0.65389,-38.84246c8.1987,0 16.05388,3.18712 19.28573,11.16383" fill="#ffffff" fill-rule="nonzero" stroke="none" stroke-width="1"/><path d="M162.69323,220.81154c3.88474,12.40686 5.15691,25.77033 7.56285,38.82605c-7.87174,0.47781 -15.7445,1.43045 -23.44576,0c2.71636,-12.71463 4.67552,-26.24816 8.66303,-38.65599c2.40696,-0.0005 5.15689,-0.64787 7.21986,-0.17004" fill="#ffffff" fill-rule="nonzero" stroke="none" stroke-width="1"/><path d="M120.64829,230.52652c1.92558,2.69189 3.36973,5.72684 2.5609,9.21974c-1.59862,4.29539 -4.81292,9.23814 -9.47086,10.66961c-1.13479,-7.48151 -0.30889,-16.24182 -0.63634,-24.18474c0.46434,-1.14208 1.30627,-0.34108 1.92507,-0.34108l0.32643,-0.61354c0.96328,1.73824 3.85113,3.1707 5.29482,5.25001" fill="#000000" fill-rule="nonzero" stroke="none" stroke-width="1"/><path d="M163.20926,246.58188c0.30888,2.89773 1.09967,5.57321 0.79028,8.43614c-3.21429,0.66527 -7.06492,0.49422 -10.45069,0.18744c0.96229,-8.28251 2.57795,-16.70224 5.48285,-24.50893c2.3894,4.7543 3.02524,10.48166 4.17757,15.88533" fill="#000000" fill-rule="nonzero" stroke="none" stroke-width="1"/><path d="M222.30403,233.5938v-0.00223h0.00372v0.00223z" fill="#ffffff" fill-rule="nonzero" stroke="none" stroke-width="1"/><path d="M226.32511,269.94755v-0.00222h0.00148v0.00222z" fill="#ffffff" fill-rule="nonzero" stroke="none" stroke-width="1"/><path d="M222.30774,233.60713c-0.00518,-0.00742 -0.01038,-0.01336 -0.01483,-0.01855c0.00445,0 0.00667,0.00297 0.0126,0.00297c-0.00074,-0.00147 -0.00074,-0.00447 -0.00074,-0.00595c0.00223,0 0.00296,0.00298 0.00518,0.00446c0,0 -0.00074,0.00148 -0.00223,0.00148v0.01559z" fill="#ffffff" fill-rule="nonzero" stroke="none" stroke-width="1"/><path d="M233.13743,221.14564c-4.64223,2.88536 -10.43603,7.86509 -11.39898,13.47901c0,8.15665 7.04863,13.29114 10.14364,20.04018c2.35522,12.67201 -8.3722,21.32558 -15.57681,30.77109c-4.98531,-2.23264 -9.49013,-5.59838 -13.83947,-9.44502c4.98579,-3.67381 12.68794,-7.69127 13.32337,-14.73234c1.30701,-8.82587 -7.04862,-14.28651 -9.62705,-21.84152c-4.50431,-11.88354 6.08618,-20.36578 13.3239,-28.05806c4.83134,2.72957 9.16313,6.42191 13.65139,9.78667" fill="#ffffff" fill-rule="nonzero" stroke="none" stroke-width="1"/><path d="M283.50145,223.00057c-10.59,4.34405 -17.81166,15.24778 -17.50173,26.959c0.34404,8.17316 4.02285,15.07698 9.97161,20.53711c2.88787,2.05932 6.12078,3.67482 9.31859,4.80691c-3.54238,4.1552 -8.04619,7.21238 -12.24056,10.40581c-14.9228,-6.2511 -21.00998,-22.28835 -20.70054,-37.50107c0.48199,-14.287 7.3932,-27.30267 20.08064,-35.6306c4.16028,2.24918 7.70215,6.74904 11.07198,10.42285" fill="#ffffff" fill-rule="nonzero" stroke="none" stroke-width="1"/><path d="M249.87379,213.81353c-2.24389,22.13507 -1.41935,47.16953 0,69.93926c-4.97677,0.78945 -10.40994,0.65271 -15.39524,0.65271c1.94246,-22.76976 2.40638,-48.93829 -0.32699,-71.57127c4.50431,-0.78847 10.10853,0 15.41229,0z" fill="#ffffff" fill-rule="nonzero" stroke="none" stroke-width="1"/><path d="M243.95062,220.25199l-0.17205,59.00096c-0.61891,0.48139 -1.44393,0.808 -2.21779,0.34364c-0.97951,-20.5361 1.25484,-40.74761 -0.326,-60.64751c0.46343,-1.27287 3.66224,-0.79148 2.71584,1.30291" fill="#e3000b" fill-rule="nonzero" stroke="none" stroke-width="1"/><path d="M222.70142,219.85774v0.79046c-4.81428,4.97873 -8.66509,10.92077 -7.08374,18.13214c3.23242,8.82587 13.1694,17.32515 6.94632,27.90327c-2.09795,4.01895 -4.50431,7.86509 -8.04619,11.07605c-0.79043,0.32461 -1.09986,-0.46388 -1.75338,-0.807c1.2719,-3.22849 4.64223,-5.46112 6.08618,-8.67158c2.75094,-4.63662 4.6593,-11.86602 1.44394,-16.84676c-4.16076,-6.5226 -9.62755,-13.6328 -6.56716,-22.11603c1.42689,-3.84713 3.98824,-7.38269 7.06569,-10.57713c0.80849,0.00049 1.5989,0.46437 1.90836,1.11657" fill="#e3000b" fill-rule="nonzero" stroke="none" stroke-width="1"/><path d="M274.83637,220.44083v0.94624c-10.28006,8.68811 -16.36723,20.0547 -14.26878,33.53473c1.44343,9.15198 7.83956,16.19204 14.75078,22.78625c-0.79194,0.63619 -1.2724,1.42464 -2.40739,1.13411c-10.28006,-8.82587 -16.36722,-20.53811 -14.44183,-34.34421c1.61646,-9.61432 6.73969,-18.28693 14.57975,-24.70883c0.82503,-0.29104 1.30551,0.18884 1.78748,0.65172" fill="#e3000b" fill-rule="nonzero" stroke="none" stroke-width="1"/></g></g></svg>